<svg xmlns="http://www.w3.org/2000/svg" viewBox="0 0 96 64">
  <defs>
    <style>
      .cls-1 {
        fill: #636b76;
      }

      .cls-2 {
        fill: #fce35f;
      }
    </style>
  </defs>
  <g id="LOGO" transform="translate(-83.2 -35.733)">
    <g id="Group_2" data-name="Group 2" transform="translate(83.353 83.955)">
      <g id="Group_1" data-name="Group 1" transform="translate(0)">
        <path id="Path_1" data-name="Path 1" class="cls-1" d="M86.151,97.89v.688h0a1.8,1.8,0,0,1,1.3.459,2.229,2.229,0,0,1,.535,1.6,2.153,2.153,0,0,1-.535,1.6,1.8,1.8,0,0,1-1.3.459h0v.764a.164.164,0,0,1-.153.153h-.688v-.841h-.076a1.8,1.8,0,0,1-1.3-.459,2.229,2.229,0,0,1-.535-1.6,2.153,2.153,0,0,1,.535-1.6,1.8,1.8,0,0,1,1.3-.459h.076v-.688c0-.076,0-.076.076-.076h.688C86.075,97.813,86.151,97.89,86.151,97.89Zm-.841,1.376h0a1.014,1.014,0,0,0-.764.229,1.383,1.383,0,0,0-.306,1.07,1.586,1.586,0,0,0,.306,1.146.934.934,0,0,0,.688.229h.076Zm.764,0v2.751h.076a.934.934,0,0,0,.688-.229,1.586,1.586,0,0,0,.306-1.146,1.383,1.383,0,0,0-.306-1.07.8.8,0,0,0-.764-.306Z" transform="translate(-83.4 -97.856)"/>
        <path id="Path_2" data-name="Path 2" class="cls-1" d="M93.681,100.153v3.821c0,.076,0,.076-.076.076h-.611c-.076,0-.076,0-.076-.076v-2.6h0a3.113,3.113,0,0,1-.459.841l-.994,1.758-.076.076h-.611c-.076,0-.076,0-.076-.076v-3.745a.075.075,0,0,1,.076-.076l.688-.153c.076,0,.076,0,.076.076v2.751h0a2.736,2.736,0,0,1,.459-.841l.994-1.758.076-.076.611-.153c-.153.076-.076.076,0,.153C93.6,100.076,93.681,100.076,93.681,100.153Z" transform="translate(-85.121 -98.361)"/>
        <path id="Path_3" data-name="Path 3" class="cls-1" d="M98.363,101.8v-1.376c0-.076,0-.076.076-.076l.611-.153h.076c.076,0,.076,0,.076.076V104.1c0,.076,0,.076-.076.076H98.44v-1.681H97.064v1.681h-.688c-.076,0-.076,0-.076-.076v-3.668c0-.076,0-.076.076-.076l.611-.153h.076c.076,0,.076,0,.076.076v1.6h1.223Z" transform="translate(-86.441 -98.408)"/>
        <path id="Path_4" data-name="Path 4" class="cls-1" d="M104.233,103.745v.076a.075.075,0,0,1-.076.076l-.459.229h-.076c-.076,0-.153-.153-.306-.459a1.509,1.509,0,0,1-1.07.459,1.149,1.149,0,0,1-.841-.306,1.044,1.044,0,0,1-.306-.841,1.44,1.44,0,0,1,.153-.611,1.667,1.667,0,0,1,.306-.382l.459-.229a4.872,4.872,0,0,0,.535-.153h.611v-.229a1.1,1.1,0,0,0-.153-.535.646.646,0,0,0-.459-.153,2.642,2.642,0,0,0-.917.229h-.076a.075.075,0,0,1-.076-.076l-.153-.382v-.076c0-.076.153-.229.459-.306a3.428,3.428,0,0,1,.841-.076,1.3,1.3,0,0,1,.994.306c.229.153.306.459.306.917v1.528A2.54,2.54,0,0,0,104.233,103.745Zm-.994-.535v-.917h-.306a.459.459,0,0,0-.306.076c-.153,0-.229.076-.306.076l-.229.229a.459.459,0,0,0-.076.306,1.086,1.086,0,0,0,.153.459.584.584,0,0,0,.382.153A1.057,1.057,0,0,0,103.24,103.21Z" transform="translate(-87.573 -98.361)"/>
        <path id="Path_5" data-name="Path 5" class="cls-1" d="M108.763,101.8v-1.376c0-.076,0-.076.076-.076l.611-.153h.076c.076,0,.076,0,.076.076V104.1c0,.076,0,.076-.076.076h-.688v-1.681h-1.376v1.681h-.688c-.076,0-.076,0-.076-.076v-3.668c0-.076,0-.076.076-.076l.611-.153h.076c.076,0,.076,0,.076.076v1.6h1.223Z" transform="translate(-88.893 -98.408)"/>
        <path id="Path_6" data-name="Path 6" class="cls-1" d="M114.528,100.611l-.229.459h-.153a1.1,1.1,0,0,0-.764-.306c-.611,0-.841.459-.841,1.376s.306,1.376.841,1.376a1.1,1.1,0,0,0,.764-.306l.076-.076a.075.075,0,0,1,.076.076l.153.382v.076c0,.076-.153.229-.459.306a3.363,3.363,0,0,1-.764.153,1.206,1.206,0,0,1-1.146-.535,2.06,2.06,0,0,1-.382-1.452,2.282,2.282,0,0,1,.459-1.528,1.485,1.485,0,0,1,1.223-.611,3.364,3.364,0,0,1,.764.153.462.462,0,0,1,.382.459Z" transform="translate(-90.072 -98.361)"/>
        <path id="Path_7" data-name="Path 7" class="cls-1" d="M119.263,102.163a2.425,2.425,0,0,1-.459,1.528,1.665,1.665,0,0,1-2.446,0,2.282,2.282,0,0,1-.459-1.528,2.425,2.425,0,0,1,.459-1.528,1.665,1.665,0,0,1,2.446,0A2.282,2.282,0,0,1,119.263,102.163Zm-.841,0c0-.917-.229-1.376-.764-1.376s-.764.459-.764,1.376a2.024,2.024,0,0,0,.229,1.07.68.68,0,0,0,1.223,0C118.5,103,118.422,102.622,118.422,102.163Z" transform="translate(-91.062 -98.385)"/>
        <path id="Path_8" data-name="Path 8" class="cls-1" d="M121.682,100.3h1.834c.153,0,.229.076.382.153a.6.6,0,0,1,.306.306,1.1,1.1,0,0,1,.153.535,1.417,1.417,0,0,1-.153.535.763.763,0,0,1-.382.306.9.9,0,0,1,.688.917.969.969,0,0,1-.076.459,1.055,1.055,0,0,1-.229.306.579.579,0,0,1-.306.153.459.459,0,0,1-.306.076h-1.834c-.076,0-.076,0-.076-.076V100.3Q121.568,100.3,121.682,100.3Zm.688.611v.917h.535a.522.522,0,0,0,.535-.535c0-.306-.153-.459-.535-.459h-.535Zm0,1.529v1.07h.611c.459,0,.688-.153.688-.535a.449.449,0,0,0-.153-.382c-.153-.076-.229-.153-.382-.153Z" transform="translate(-92.412 -98.432)"/>
        <path id="Path_9" data-name="Path 9" class="cls-1" d="M129.663,102.163a2.425,2.425,0,0,1-.459,1.528,1.665,1.665,0,0,1-2.446,0,2.282,2.282,0,0,1-.459-1.528,2.425,2.425,0,0,1,.459-1.528,1.665,1.665,0,0,1,2.446,0A1.943,1.943,0,0,1,129.663,102.163Zm-.841,0c0-.917-.229-1.376-.764-1.376s-.764.459-.764,1.376a2.024,2.024,0,0,0,.229,1.07.68.68,0,0,0,1.223,0C128.746,103,128.822,102.622,128.822,102.163Z" transform="translate(-93.514 -98.385)"/>
        <path id="Path_10" data-name="Path 10" class="cls-1" d="M134.833,102.087h0v.229h-2.293c0,.764.382,1.146.994,1.146h.306c.076,0,.153-.076.229-.076s.153-.076.229-.076a.237.237,0,0,1,.153-.076h.076a.075.075,0,0,1,.076.076l.153.382v.076c0,.076-.153.229-.535.306a3.944,3.944,0,0,1-.841.153,1.339,1.339,0,0,1-1.223-.535,2.282,2.282,0,0,1-.459-1.528,2.425,2.425,0,0,1,.459-1.528,1.425,1.425,0,0,1,1.223-.535,1.375,1.375,0,0,1,1.146.535A3.432,3.432,0,0,1,134.833,102.087Zm-.841-.306c0-.688-.229-1.07-.688-1.07s-.688.382-.764,1.07Z" transform="translate(-94.787 -98.385)"/>
        <path id="Path_11" data-name="Path 11" class="cls-1" d="M139.206,101.017l-.229-.306v-.076c0-.153.153-.306.459-.382a3.251,3.251,0,0,1,.841-.153,1.3,1.3,0,0,1,.535.076c.153.076.382.153.459.382a.934.934,0,0,1,.229.688.826.826,0,0,1-.535.841c.229.076.382.153.459.382a1.8,1.8,0,0,1,.153.611.886.886,0,0,1-.306.764,1.582,1.582,0,0,1-1.146.382,2.748,2.748,0,0,1-.841-.153c-.306-.153-.382-.229-.382-.306v-.076l.153-.382a.075.075,0,0,1,.076-.076h.076a541.4,541.4,0,0,0,.153.153,541.4,541.4,0,0,0,.153.153h.459a.646.646,0,0,0,.459-.153.462.462,0,0,0,.229-.459.545.545,0,0,0-.229-.459,1.1,1.1,0,0,0-.535-.153h-.229v-.535h.306c.459,0,.688-.153.688-.535a.449.449,0,0,0-.153-.382c-.153-.076-.229-.153-.382-.153a1.233,1.233,0,0,0-.688.229l-.076.076c-.076,0-.076.076-.153,0Z" transform="translate(-96.485 -98.385)"/>
        <path id="Path_12" data-name="Path 12" class="cls-1" d="M146.31,100.376v3.133h.382c.076,0,.076,0,.076.076v1.528c0,.076,0,.076-.076.076h-.535c-.076,0-.076,0-.076-.076v-.994h-2.293v.994c0,.076,0,.076-.076.076h-.535c-.076,0-.076,0-.076-.076v-1.528c0-.076,0-.076.076-.076h.306a5.306,5.306,0,0,0,.382-.994,4.372,4.372,0,0,0,.076-1.07v-1.07c0-.076,0-.076.076-.076h2.293Zm-.764,3.133v-2.6h-.917v.382a5.779,5.779,0,0,1-.382,2.216Z" transform="translate(-97.475 -98.432)"/>
        <path id="Path_13" data-name="Path 13" class="cls-1" d="M151.963,102.163a2.425,2.425,0,0,1-.459,1.528,1.665,1.665,0,0,1-2.446,0,2.282,2.282,0,0,1-.459-1.528,2.425,2.425,0,0,1,.459-1.528,1.665,1.665,0,0,1,2.446,0A2.282,2.282,0,0,1,151.963,102.163Zm-.841,0c0-.917-.229-1.376-.764-1.376s-.764.459-.764,1.376a2.024,2.024,0,0,0,.229,1.07.68.68,0,0,0,1.223,0C151.046,103,151.122,102.622,151.122,102.163Z" transform="translate(-98.771 -98.385)"/>
        <path id="Path_14" data-name="Path 14" class="cls-1" d="M157.286,102.109a3.106,3.106,0,0,1-.382,1.6,1.114,1.114,0,0,1-.994.535,1.149,1.149,0,0,1-.841-.306v1.6c0,.076,0,.076-.076.153l-.611.153h-.076c-.076,0-.076-.076-.076-.153v-4.356a1.526,1.526,0,0,0-.153-.688A.237.237,0,0,1,154,100.5a.075.075,0,0,1,.076-.076l.535-.229h.076q.115,0,.229.459a1.651,1.651,0,0,1,1.07-.459C156.828,100.122,157.286,100.81,157.286,102.109Zm-.841,0a2.656,2.656,0,0,0-.153-.994.512.512,0,0,0-.535-.306,1.235,1.235,0,0,0-.764.306v2.216a1.451,1.451,0,0,0,.688.229c.306,0,.459-.076.535-.306C156.446,103.026,156.446,102.644,156.446,102.109Z" transform="translate(-100.044 -98.406)"/>
        <path id="Path_15" data-name="Path 15" class="cls-1" d="M162.563,102.163a2.425,2.425,0,0,1-.459,1.528,1.665,1.665,0,0,1-2.446,0,2.282,2.282,0,0,1-.459-1.528,2.425,2.425,0,0,1,.459-1.528,1.665,1.665,0,0,1,2.446,0A2.282,2.282,0,0,1,162.563,102.163Zm-.917,0c0-.917-.229-1.376-.764-1.376s-.764.459-.764,1.376a2.024,2.024,0,0,0,.229,1.07.68.68,0,0,0,1.223,0A4.063,4.063,0,0,0,161.646,102.163Z" transform="translate(-101.27 -98.385)"/>
        <path id="Path_16" data-name="Path 16" class="cls-1" d="M164.89,100.3h1.834c.153,0,.229.076.382.153a.6.6,0,0,1,.306.306,1.105,1.105,0,0,1,.153.535,1.418,1.418,0,0,1-.153.535.763.763,0,0,1-.382.306.9.9,0,0,1,.688.917.97.97,0,0,1-.076.459,1.056,1.056,0,0,1-.229.306.58.58,0,0,1-.306.153.46.46,0,0,1-.306.076h-1.834c-.076,0-.076,0-.076-.076V100.3C164.813,100.3,164.89,100.3,164.89,100.3Zm.764.611v.917h.535a.522.522,0,0,0,.535-.535c0-.306-.153-.459-.535-.459h-.535Zm0,1.529v1.07h.611c.459,0,.688-.153.688-.535a.449.449,0,0,0-.153-.382c-.153-.076-.229-.153-.382-.153Z" transform="translate(-102.604 -98.432)"/>
        <path id="Path_17" data-name="Path 17" class="cls-1" d="M170.788,101.628h.611a1.877,1.877,0,0,1,1.146.382,1.149,1.149,0,0,1,.306.841,1.044,1.044,0,0,1-.306.841,1.794,1.794,0,0,1-1.223.382h-1.146c-.076,0-.076,0-.076-.076v-3.668a.075.075,0,0,1,.076-.076l.611-.153h0c.076,0,.076,0,.076.076v1.452Zm0,.688v1.146h.459a1.086,1.086,0,0,0,.459-.153.462.462,0,0,0,.229-.459c0-.153,0-.229-.076-.306s-.153-.153-.229-.153-.153-.076-.229-.076h-.611Z" transform="translate(-103.84 -98.385)"/>
        <path id="Path_18" data-name="Path 18" class="cls-1" d="M177.733,102.087h0v.229h-2.293c0,.764.382,1.146.994,1.146h.306c.076,0,.153-.076.229-.076s.153-.076.229-.076a.237.237,0,0,1,.153-.076h.076a.075.075,0,0,1,.076.076l.153.382v.076c0,.076-.153.229-.535.306a3.944,3.944,0,0,1-.841.153,1.34,1.34,0,0,1-1.223-.535,2.282,2.282,0,0,1-.459-1.528,2.425,2.425,0,0,1,.459-1.528,1.425,1.425,0,0,1,1.223-.535,1.375,1.375,0,0,1,1.146.535A3.432,3.432,0,0,1,177.733,102.087Zm-.841-.306c0-.688-.229-1.07-.688-1.07s-.688.382-.764,1.07Z" transform="translate(-104.901 -98.385)"/>
        <path id="Path_19" data-name="Path 19" class="cls-1" d="M83.873,111.1h1.834c.153,0,.229.076.382.153a.6.6,0,0,1,.306.306,1.1,1.1,0,0,1,.153.535,1.417,1.417,0,0,1-.153.535.763.763,0,0,1-.382.306.9.9,0,0,1,.688.917.969.969,0,0,1-.076.459,1.055,1.055,0,0,1-.229.306.579.579,0,0,1-.306.153.46.46,0,0,1-.306.076H83.949c-.076,0-.076,0-.076-.076V111.1C83.72,111.176,83.8,111.1,83.873,111.1Zm.688.611v.917H85.1a.522.522,0,0,0,.535-.535c0-.306-.153-.459-.535-.459h-.535Zm0,1.6v1.07h.611c.459,0,.688-.153.688-.535a.449.449,0,0,0-.153-.382c-.153-.076-.229-.153-.382-.153Z" transform="translate(-83.491 -100.978)"/>
        <path id="Path_20" data-name="Path 20" class="cls-1" d="M91.533,114.645v.076a.075.075,0,0,1-.076.076l-.459.229h-.076c-.076,0-.153-.153-.306-.459a1.509,1.509,0,0,1-1.07.459,1.149,1.149,0,0,1-.841-.306,1.044,1.044,0,0,1-.306-.841,1.44,1.44,0,0,1,.153-.611,1.667,1.667,0,0,1,.306-.382l.459-.229a4.865,4.865,0,0,0,.535-.153h.611v-.229a1.1,1.1,0,0,0-.153-.535.646.646,0,0,0-.459-.153,2.642,2.642,0,0,0-.917.229h-.076a.075.075,0,0,1-.076-.076l-.153-.382v-.076c0-.076.153-.229.459-.306a3.428,3.428,0,0,1,.841-.076,1.3,1.3,0,0,1,.994.306c.229.153.306.459.306.917v1.528C91.381,114.11,91.457,114.416,91.533,114.645Zm-.917-.611v-.917h-.306a.46.46,0,0,0-.306.076c-.153,0-.229.076-.306.076l-.229.229a.459.459,0,0,0-.076.306,1.086,1.086,0,0,0,.153.459.584.584,0,0,0,.382.153A1.034,1.034,0,0,0,90.616,114.033Z" transform="translate(-84.579 -100.931)"/>
        <path id="Path_21" data-name="Path 21" class="cls-1" d="M98.256,111.076V114.9c0,.076,0,.076-.076.076h-4.2c-.076,0-.076,0-.076-.076v-3.668a.075.075,0,0,1,.076-.076l.611-.153h.076c.076,0,.076,0,.076.076v3.286h.994v-3.133c0-.076,0-.076.076-.076l.611-.153h0c.076,0,.076,0,.076.076v3.286h.994v-3.133a.075.075,0,0,1,.076-.076L98.18,111h0a.075.075,0,0,1,.076.076Z" transform="translate(-85.875 -100.954)"/>
        <path id="Path_22" data-name="Path 22" class="cls-1" d="M104.281,111.053v3.821c0,.076,0,.076-.076.076h-.611c-.076,0-.076,0-.076-.076v-2.6h0a3.113,3.113,0,0,1-.459.841l-.994,1.758-.076.076h-.611c-.076,0-.076,0-.076-.076v-3.745a.075.075,0,0,1,.076-.076l.688-.153c.076,0,.076,0,.076.076v2.751h0a2.737,2.737,0,0,1,.459-.841l.994-1.758.076-.076.611-.153c-.153.076-.076.076,0,.153Z" transform="translate(-87.62 -100.931)"/>
        <path id="Path_23" data-name="Path 23" class="cls-1" d="M109.663,114.792v.076a.075.075,0,0,1-.076.076l-.535.153h-.076a.075.075,0,0,1-.076-.076l-.688-1.07a.7.7,0,0,1-.229-.382,1.671,1.671,0,0,1-.229.382l-.688,1.07a.075.075,0,0,1-.076.076h-.076l-.535-.153a.076.076,0,0,1,0-.153l1.223-1.681-1.07-1.528-.076-.076a.075.075,0,0,1,.076-.076l.535-.229h.076a.075.075,0,0,1,.076.076l.535.917c0,.076.076.153.153.229s.076.153.153.229a4.529,4.529,0,0,0,.306-.459l.611-.917a.075.075,0,0,1,.076-.076h.076l.535.229a.076.076,0,0,1,0,.153l-1.146,1.528Z" transform="translate(-88.799 -101.002)"/>
        <path id="Path_24" data-name="Path 24" class="cls-1" d="M116.628,111.511l-.229.459h-.153a1.1,1.1,0,0,0-.764-.306c-.611,0-.841.459-.841,1.376s.306,1.376.841,1.376a1.1,1.1,0,0,0,.764-.306l.076-.076a.075.075,0,0,1,.076.076l.153.382v.076c0,.076-.153.229-.459.306a3.363,3.363,0,0,1-.764.153,1.206,1.206,0,0,1-1.146-.535,2.06,2.06,0,0,1-.382-1.452,2.282,2.282,0,0,1,.459-1.528,1.485,1.485,0,0,1,1.223-.611,3.363,3.363,0,0,1,.764.153c.229.153.382.306.382.459Z" transform="translate(-90.567 -100.931)"/>
        <path id="Path_25" data-name="Path 25" class="cls-1" d="M121.363,113.063a2.425,2.425,0,0,1-.459,1.528,1.665,1.665,0,0,1-2.446,0,2.777,2.777,0,0,1,0-3.057,1.665,1.665,0,0,1,2.446,0A2.282,2.282,0,0,1,121.363,113.063Zm-.917-.076c0-.917-.229-1.376-.764-1.376s-.764.459-.764,1.376a2.024,2.024,0,0,0,.229,1.07.68.68,0,0,0,1.223,0A3.474,3.474,0,0,0,120.446,112.987Z" transform="translate(-91.557 -100.954)"/>
        <path id="Path_26" data-name="Path 26" class="cls-1" d="M124.811,111.811v3.133c0,.076,0,.076-.076.076h-.611c-.076,0-.076,0-.076-.076v-3.133h-1.07c-.076,0-.076,0-.076-.076v-.459c0-.076,0-.076.076-.076H125.8c.076,0,.076,0,.076.076h0l-.153.459a.075.075,0,0,1-.076.076Z" transform="translate(-92.712 -101.002)"/>
        <path id="Path_27" data-name="Path 27" class="cls-1" d="M130.686,113.009a3.106,3.106,0,0,1-.382,1.6,1.114,1.114,0,0,1-.994.535,1.149,1.149,0,0,1-.841-.306v1.6c0,.076,0,.076-.076.153l-.611.153h-.076c-.076,0-.076-.076-.076-.153v-4.356a1.526,1.526,0,0,0-.153-.688.237.237,0,0,1-.076-.153.075.075,0,0,1,.076-.076l.535-.229h.076q.115,0,.229.459a1.651,1.651,0,0,1,1.07-.459C130.228,111.022,130.686,111.633,130.686,113.009Zm-.841,0a2.656,2.656,0,0,0-.153-.994.512.512,0,0,0-.535-.306,1.235,1.235,0,0,0-.764.306v2.216a1.451,1.451,0,0,0,.688.229c.306,0,.459-.076.535-.306C129.846,113.926,129.846,113.544,129.846,113.009Z" transform="translate(-93.773 -100.976)"/>
        <path id="Path_28" data-name="Path 28" class="cls-1" d="M135.763,111.306l-.917,3.286c0,.076-.076.153-.076.306a.831.831,0,0,0-.076.382c0,.076-.076.229-.076.306-.076.153-.076.229-.153.306s-.076.153-.153.306l-.229.229c-.076.076-.153.076-.306.153a.689.689,0,0,1-.382.076,2.362,2.362,0,0,1-.611-.153c-.229-.076-.382-.153-.382-.229V116.2l.229-.459a.075.075,0,0,1,.076-.076h.076a1.22,1.22,0,0,0,.611.229.584.584,0,0,0,.382-.153,1.244,1.244,0,0,0,.229-.459l.153-.382h-.306c-.076,0-.076,0-.153-.076l-1.223-3.516v-.076a.075.075,0,0,1,.076-.076l.611-.153h0c.076,0,.076,0,.076.076l.764,2.446a3.749,3.749,0,0,1,.229.994.281.281,0,0,1,.076-.229.459.459,0,0,1,.076-.306.281.281,0,0,1,.076-.229l.611-2.675a.075.075,0,0,1,.076-.076h0l.611.153c-.076.076,0,.076,0,.153Z" transform="translate(-94.952 -100.954)"/>
        <path id="Path_29" data-name="Path 29" class="cls-1" d="M140.11,111.176v3.133h.382c.076,0,.076,0,.076.076v1.528c0,.076,0,.076-.076.076h-.535c-.076,0-.076,0-.076-.076v-.994h-2.293v.994c0,.076,0,.076-.076.076h-.535c-.076,0-.076,0-.076-.076v-1.528c0-.076,0-.076.076-.076h.306a5.307,5.307,0,0,0,.382-.994,4.371,4.371,0,0,0,.076-1.07v-1.07c0-.076,0-.076.076-.076h2.293Zm-.841,3.133v-2.522h-.917v.382a5.779,5.779,0,0,1-.382,2.216h1.3Z" transform="translate(-96.013 -100.978)"/>
        <path id="Path_30" data-name="Path 30" class="cls-1" d="M144.963,112.6v-1.376c0-.076,0-.076.076-.076l.611-.153h.076c.076,0,.076,0,.076.076V114.9c0,.076,0,.076-.076.076h-.688v-1.681h-1.376v1.681h-.688c-.076,0-.076,0-.076-.076v-3.668c0-.076,0-.076.076-.076l.611-.153h.076c.076,0,.076,0,.076.076v1.6h1.223Z" transform="translate(-97.427 -100.954)"/>
        <path id="Path_31" data-name="Path 31" class="cls-1" d="M151.181,111.053v3.821c0,.076,0,.076-.076.076h-.611c-.076,0-.076,0-.076-.076v-2.6h0a3.114,3.114,0,0,1-.459.841l-.994,1.758-.076.076h-.611c-.076,0-.076,0-.076-.076v-3.745a.075.075,0,0,1,.076-.076l.688-.153c.076,0,.076,0,.076.076v2.751h0a2.737,2.737,0,0,1,.459-.841l.994-1.758.076-.076.611-.153c-.076.076-.076.076,0,.153Z" transform="translate(-98.677 -100.931)"/>
        <path id="Path_32" data-name="Path 32" class="cls-1" d="M156.575,111.082l.153.459h0c0,.076,0,.076-.076.076l-.153.076c-.153,0-.229.153-.306.382l-.076.306c0,.076-.076.153-.076.229s-.076.153-.153.229a.4.4,0,0,1-.306.153.74.74,0,0,1,.535.611l.153.535c0,.076.076.153.153.229a.281.281,0,0,0,.229.076h.153c.076,0,.076,0,.076.076v.076l-.153.459c0,.076-.076.076-.153.076a1.44,1.44,0,0,1-.611-.153.943.943,0,0,1-.382-.611l-.153-.535a.4.4,0,0,0-.153-.306c-.076-.076-.153-.076-.153-.153h-.459v1.6c0,.076,0,.076-.076.076h-.611c-.076,0-.076,0-.076-.076v-3.668c0-.076,0-.076.076-.076l.611-.153h0c.076,0,.076,0,.076.076v1.6h.459c.076,0,.076,0,.153-.076.076,0,.076-.076.153-.153a.46.46,0,0,0,.076-.306l.076-.306a2.288,2.288,0,0,1,.306-.611.868.868,0,0,1,.611-.229C156.5,111.006,156.575,111.006,156.575,111.082Z" transform="translate(-100.021 -100.96)"/>
        <path id="Path_33" data-name="Path 33" class="cls-1" d="M161.763,113.063a2.425,2.425,0,0,1-.459,1.528,1.665,1.665,0,0,1-2.446,0,2.777,2.777,0,0,1,0-3.057,1.665,1.665,0,0,1,2.446,0A2.282,2.282,0,0,1,161.763,113.063Zm-.841-.076c0-.917-.229-1.376-.764-1.376s-.764.459-.764,1.376a2.024,2.024,0,0,0,.229,1.07.68.68,0,0,0,1.223,0C160.846,113.9,160.922,113.522,160.922,112.987Z" transform="translate(-101.082 -100.954)"/>
        <path id="Path_34" data-name="Path 34" class="cls-1" d="M164.182,111.1h1.834c.153,0,.229.076.382.153a.6.6,0,0,1,.306.306,1.1,1.1,0,0,1,.153.535,1.417,1.417,0,0,1-.153.535.763.763,0,0,1-.382.306.9.9,0,0,1,.688.917.969.969,0,0,1-.076.459,1.056,1.056,0,0,1-.229.306.58.58,0,0,1-.306.153.46.46,0,0,1-.306.076h-1.834c-.076,0-.076,0-.076-.076V111.1C164.106,111.176,164.106,111.1,164.182,111.1Zm.688.611v.917h.535a.522.522,0,0,0,.535-.535c0-.306-.153-.459-.535-.459h-.535Zm0,1.6v1.07h.611c.459,0,.688-.153.688-.535a.449.449,0,0,0-.153-.382c-.153-.076-.229-.153-.382-.153Z" transform="translate(-102.431 -100.978)"/>
      </g>
    </g>
    <path id="Path_35" data-name="Path 35" class="cls-2" d="M135.756,61.846a.981.981,0,0,0,.306-.764c0-.688-1.07-1.376-2.14-.841-8.025,3.745-13.909,18.113-14.6,18.953-.611-1.6-1.758-4.356-2.446-5.961-.841-2.14-2.063-7.337-5.044-6.038-1.452.611-.688,3.057-.382,3.592.153.306,5.35,13.756,5.579,14.291a2.765,2.765,0,0,0,3.439,1.6,1.892,1.892,0,0,0,1.146-.917,3.994,3.994,0,0,0,.535-1.146c4.662-12.151,9.018-18.8,13.3-22.469,0,0,.306-.229.306-.306Z" transform="translate(-6.523 -5.354)"/>
    <path id="Path_36" data-name="Path 36" class="cls-1" d="M90.231,79.365l-2.216,7.184H83.2L91.454,61.1h5.961l8.254,25.449h-5.044l-2.293-7.184Zm7.337-3.516-1.987-6.267c-.459-1.528-.917-3.286-1.3-4.738h-.076c-.382,1.452-.764,3.21-1.223,4.738L91,75.85Z" transform="translate(0 -5.598)"/>
    <path id="Path_37" data-name="Path 37" class="cls-1" d="M147.717,88.577l-.306-2.063h-.076a6.783,6.783,0,0,1-5.426,2.446,5.507,5.507,0,0,1-5.808-5.5c0-4.662,4.127-6.955,10.929-6.955V76.2c0-1.223-.459-3.21-3.745-3.21a9.456,9.456,0,0,0-4.968,1.376L137.4,71.3a13.227,13.227,0,0,1,6.649-1.6c5.885,0,7.566,3.745,7.566,7.719v6.649a36.172,36.172,0,0,0,.229,4.433h-4.127Zm-.611-8.942c-3.286-.076-6.42.611-6.42,3.439a2.45,2.45,0,0,0,2.675,2.675,3.724,3.724,0,0,0,3.592-2.522,4.472,4.472,0,0,0,.153-.994Z" transform="translate(-12.427 -7.568)"/>
    <path id="Path_38" data-name="Path 38" class="cls-1" d="M176.4,59.4h4.662V86.225H176.4Z" transform="translate(-21.904 -5.21)"/>
    <path id="Path_39" data-name="Path 39" class="cls-1" d="M189.82,70.4l3.286,9.859a36.483,36.483,0,0,1,.994,3.592h.076c.306-1.07.611-2.446.994-3.592l2.9-9.782h4.968L198.456,83.01c-2.522,6.878-4.2,9.935-6.42,11.846a9.417,9.417,0,0,1-4.891,2.369l-1.07-3.9a8.372,8.372,0,0,0,5.273-4.2,2.268,2.268,0,0,0,.306-.841,1.884,1.884,0,0,0-.229-.917L184.7,70.476h5.12Z" transform="translate(-23.842 -7.631)"/>
    <path id="Path_40" data-name="Path 40" class="cls-1" d="M151.736,56.037s4.356,1.6,5.35,2.6a5.338,5.338,0,0,0,4.738,1.528c1.6-.459,3.21-2.446,2.9-3.745s1.6-3.439,3.057-3.9,8.33-2.981,9.4-6.725l-1.681-.076s.153,2.751-4.433,3.439-8.942,2.293-9.4,3.363c-.459,1.146.535-3.363-.306-4.815S147.456,36.93,145.775,35.937s-.994,1.911-.382,2.828,8.789,9.247,9.171,9.935,1.681,5.273,1.681,5.273l.076,1.3-4.28-.076Z" transform="translate(-14.439)"/>
    <rect id="Rectangle_1" data-name="Rectangle 1" class="cls-1" width="4.662" height="18.418" transform="translate(144.092 62.668)"/>
  </g>
</svg>
