<svg xmlns="http://www.w3.org/2000/svg" xmlns:xlink="http://www.w3.org/1999/xlink" width="117" height="77" viewBox="0 0 117 77"><defs><path id="u02la" d="M31.427 72.241c.463 0 .74.093.926.37.278.279.37.65.37 1.297 0 .649-.092 1.112-.37 1.39-.185.185-.463.277-.834.277h-.092zm-.926 3.242h-.093c-.37 0-.648-.093-.834-.278-.277-.278-.37-.74-.37-1.39 0-.647.093-1.018.37-1.296.186-.185.463-.278.927-.278zm.926-4.909h-.834c-.092 0-.092 0-.092.093v.834h-.093c-.648 0-1.204.185-1.574.555-.464.463-.649 1.112-.649 1.945 0 .926.278 1.574.649 1.945.37.37.926.556 1.574.556h.093v1.018h.833a.2.2 0 0 0 .185-.185v-.926c.649 0 1.204-.185 1.575-.556.463-.463.648-1.111.648-1.945 0-.926-.278-1.574-.648-1.944-.37-.37-.926-.556-1.575-.556v-.834s-.092-.092-.092 0z"/><path id="u02lb" d="M38.558 72.704v4.631c0 .093 0 .093-.093.093h-.74c-.093 0-.093 0-.093-.093v-2.13-1.019a3.773 3.773 0 0 1-.556 1.019l-1.204 2.13-.093.093h-.74c-.093 0-.093 0-.093-.093v-4.538s0-.093.092-.093l.834-.185c.093 0 .093 0 .093.093V75.946c.185-.463.37-.834.555-1.019l1.204-2.13.093-.093.74-.185c-.185.093-.092.093 0 .185-.092-.092 0-.092 0 0z"/><path id="u02lc" d="M42.633 74.65v-1.668c0-.092 0-.092.092-.092l.741-.186h.093c.092 0 .092 0 .092.093v4.63c0 .093 0 .093-.092.093h-.834v-2.037h-1.667v2.037h-.833c-.093 0-.093 0-.093-.092v-4.446c0-.092 0-.092.093-.092l.74-.186h.093c.093 0 .093 0 .093.093v1.945h1.482z"/><path id="u02ld" d="M47.17 76.409v-1.111h-.37c-.092 0-.278 0-.37.092-.186 0-.278.093-.37.093l-.279.278c-.092.092-.092.277-.092.37 0 .185.092.37.185.556a.707.707 0 0 0 .463.185c.278 0 .556-.185.834-.463zm1.205.648v.093s0 .092-.093.092l-.556.278h-.092c-.093 0-.186-.185-.37-.555-.371.37-.834.555-1.297.555-.37 0-.741-.092-1.02-.37-.277-.278-.37-.556-.37-1.019 0-.278.093-.556.186-.74.092-.186.278-.371.37-.464l.556-.278c.278-.092.463-.092.648-.185h.741v-.278c0-.278-.093-.463-.185-.648-.093-.093-.278-.185-.556-.185s-.648.092-1.111.278h-.093s-.092 0-.092-.093l-.186-.463v-.093c0-.092.186-.278.556-.37.37-.093.74-.093 1.019-.093.555 0 .926.093 1.204.37.278.186.37.556.37 1.112v1.852c.093.556.185.926.37 1.204z"/><path id="u02le" d="M52.264 74.65v-1.668c0-.092 0-.092.093-.092l.74-.186h.093c.093 0 .093 0 .093.093v4.63c0 .093 0 .093-.093.093h-.833v-2.037H50.69v2.037h-.833c-.093 0-.093 0-.093-.092v-4.446c0-.092 0-.092.092-.092l.741-.186h.093c.092 0 .092 0 .092.093v1.945h1.482z"/><path id="u02lf" d="M57.821 73.26l-.278.556h-.185a1.327 1.327 0 0 0-.926-.37c-.741 0-1.019.555-1.019 1.666 0 1.112.37 1.667 1.019 1.667.278 0 .648-.092.926-.37l.093-.093s.092 0 .092.093l.185.463v.093c0 .092-.185.277-.555.37-.37.093-.649.185-.926.185-.649 0-1.112-.185-1.39-.648-.37-.37-.463-1.019-.463-1.76 0-.833.186-1.389.556-1.852.37-.463.833-.74 1.482-.74.278 0 .555.092.926.184.37.093.463.37.463.556z"/><path id="u02lg" d="M61.34 75.112c0-1.111-.278-1.667-.926-1.667s-.926.556-.926 1.667c0 .556.093 1.02.278 1.297.185.278.37.463.74.463.371 0 .556-.185.742-.463.185-.278.092-.741.092-1.297zm1.019 0c0 .741-.185 1.39-.556 1.853-.37.463-.833.648-1.482.648-.648 0-1.11-.185-1.481-.648-.37-.463-.556-1.02-.556-1.853 0-.74.185-1.389.556-1.852.37-.463.833-.648 1.481-.648.649 0 1.112.185 1.482.648.37.463.556 1.019.556 1.852z"/><path id="u02lh" d="M65.415 75.39c.185 0 .278.093.463.185.093.093.185.186.185.463 0 .464-.277.649-.833.649h-.741V75.39zm-.926-1.945h.648c.463 0 .649.186.649.556 0 .185-.093.37-.186.463a.707.707 0 0 1-.463.185h-.648zm-.834-.648v4.445c0 .093 0 .093.093.093h2.222c.093 0 .279 0 .371-.093.093 0 .278-.092.37-.185.093-.092.186-.185.278-.37.093-.185.093-.37.093-.556 0-.556-.278-.926-.833-1.111.185-.093.37-.185.463-.37.092-.186.185-.464.185-.649 0-.278-.093-.463-.185-.648a.723.723 0 0 0-.37-.37c-.186-.093-.279-.186-.464-.186h-2.223zm0 0c-.092 0-.092 0 0 0z"/><path id="u02li" d="M70.972 75.112c0-1.111-.278-1.667-.926-1.667-.649 0-.926.556-.926 1.667 0 .556.092 1.02.277 1.297.186.278.37.463.741.463.37 0 .556-.185.741-.463 0-.278.093-.741.093-1.297zm1.019 0c0 .741-.186 1.39-.556 1.853-.37.463-.834.648-1.482.648s-1.111-.185-1.482-.648c-.37-.463-.555-1.02-.555-1.853 0-.74.185-1.389.555-1.852.37-.463.834-.648 1.482-.648s1.111.185 1.482.648c.463.463.556 1.019.556 1.852z"/><path id="u02lj" d="M75.695 74.65c0-.834-.278-1.297-.834-1.297-.555 0-.833.463-.926 1.296zm1.019.37v.278h-2.779c0 .926.463 1.389 1.204 1.389h.37c.093 0 .186-.093.279-.093.092 0 .185-.092.277-.092.093-.093.186-.093.186-.093h.092s.093 0 .093.093l.185.463v.092c0 .093-.185.278-.648.37-.37.093-.741.186-1.019.186-.648 0-1.204-.185-1.482-.648-.37-.463-.555-1.02-.555-1.853 0-.74.185-1.389.555-1.852.37-.463.834-.648 1.482-.648.556 0 1.019.185 1.39.648.184.37.37 1.019.37 1.76z"/><path id="u02lk" d="M79.955 73.723l-.278-.37v-.093c0-.185.185-.37.556-.463.37-.093.648-.185 1.019-.185.185 0 .463 0 .648.092.185.093.463.186.556.464.185.185.277.463.277.833 0 .463-.185.834-.648 1.019.278.092.463.185.556.463.092.278.185.463.185.74 0 .371-.093.742-.37.927-.278.278-.741.463-1.39.463-.37 0-.74-.093-1.018-.185-.37-.186-.463-.278-.463-.37v-.093l.185-.463s0-.093.093-.093h.092s.093 0 .093.093c.092 0 .092.092.092.092s.093 0 .093.093c.093 0 .093.092.093.092H80.88c.278 0 .463-.092.556-.185.185-.092.278-.278.278-.556 0-.277-.093-.37-.278-.555-.185-.093-.37-.185-.648-.185h-.278v-.556-.093h.37c.556 0 .834-.185.834-.648 0-.278-.093-.37-.185-.463-.186-.093-.278-.185-.464-.185-.277 0-.555.092-.833.278l-.093.092c-.092 0-.092.093-.185 0 0 .093 0 0 0 0z"/><path id="u02ll" d="M86.438 76.687v-3.149h-1.111v.463c0 1.111-.186 2.037-.463 2.686zm.926-3.797v3.797h.463c.093 0 .093 0 .093.092v1.853c0 .092 0 .092-.093.092h-.648c-.093 0-.093 0-.093-.092v-1.204h-2.778v1.204c0 .092 0 .092-.093.092h-.648c-.093 0-.093 0-.093-.092v-1.853c0-.092 0-.092.093-.092h.37c.186-.37.37-.834.463-1.204.093-.37.093-.741.093-1.297V72.89c0-.093 0-.093.093-.093h2.778v.093z"/><path id="u02lm" d="M91.624 75.112c0-1.111-.278-1.667-.926-1.667s-.926.556-.926 1.667c0 .556.093 1.02.278 1.297.185.278.37.463.74.463.371 0 .556-.185.742-.463 0-.278.092-.741.092-1.297zm1.019 0c0 .741-.185 1.39-.556 1.853-.37.463-.833.648-1.482.648-.648 0-1.11-.185-1.481-.648-.37-.463-.556-1.02-.556-1.853 0-.74.185-1.389.556-1.852.37-.463.833-.648 1.481-.648.649 0 1.112.185 1.482.648.37.463.556 1.019.556 1.852z"/><path id="u02ln" d="M96.533 75.02c0-.556-.093-1.019-.186-1.204-.092-.278-.37-.37-.648-.37s-.556.092-.926.37v2.686c.278.185.648.277.833.277.37 0 .556-.092.649-.37.278-.278.278-.741.278-1.39zm1.018 0c0 .833-.185 1.482-.463 1.945-.278.463-.74.648-1.204.648-.37 0-.74-.093-1.018-.37v1.944c0 .093 0 .093-.093.185l-.74.186h-.094c-.092 0-.092-.093-.092-.186v-5.278c0-.37-.093-.649-.185-.834-.093-.092-.093-.185-.093-.185s0-.093.093-.093l.648-.278h.092c.093 0 .186.186.278.556.463-.37.834-.556 1.297-.556 1.019-.092 1.574.741 1.574 2.316z"/><path id="u02lo" d="M101.348 75.112c0-1.111-.277-1.667-.926-1.667-.648 0-.926.556-.926 1.667 0 .556.093 1.02.278 1.297.185.278.37.463.74.463.371 0 .557-.185.742-.463.092-.278.092-.741.092-1.297zm1.112 0c0 .741-.186 1.39-.556 1.853-.37.463-.833.648-1.482.648-.648 0-1.111-.185-1.482-.648-.37-.463-.555-1.02-.555-1.853 0-.74.185-1.389.555-1.852.37-.463.834-.648 1.482-.648.649 0 1.112.185 1.482.648.37.463.556 1.019.556 1.852z"/><path id="u02lp" d="M105.516 75.39c.185 0 .278.093.463.185.093.093.185.186.185.463 0 .464-.278.649-.833.649h-.741V75.39zm-.926-1.945h.648c.463 0 .648.186.648.556 0 .185-.092.37-.185.463a.707.707 0 0 1-.463.185h-.648zm-.926-.648v4.445c0 .093 0 .093.092.093h2.223c.093 0 .278 0 .37-.093.093 0 .278-.092.37-.185a1.28 1.28 0 0 0 .279-.37c.092-.185.092-.37.092-.556 0-.556-.278-.926-.833-1.111.185-.093.37-.185.463-.37.092-.186.185-.464.185-.649 0-.278-.093-.463-.185-.648a.723.723 0 0 0-.37-.37c-.186-.093-.278-.186-.464-.186h-2.222zm0 0c-.093 0 0 0 0 0z"/><path id="u02lq" d="M109.313 75.298v1.389h.556c.185 0 .37-.093.555-.185.186-.093.278-.278.278-.556 0-.185 0-.278-.092-.37-.093-.093-.186-.186-.278-.186-.093 0-.185-.092-.278-.092H109.313zm0-.834h.74c.557 0 1.02.185 1.39.463.278.278.37.648.37 1.019 0 .463-.092.74-.37 1.019-.278.277-.833.463-1.482.463h-1.389c-.093 0-.093 0-.093-.093V72.89s0-.093.093-.093l.741-.185c.093 0 .093 0 .093.092v1.76z"/><path id="u02lr" d="M115.425 74.65c0-.834-.277-1.297-.833-1.297-.556 0-.834.463-.926 1.296zm1.02.37v.278h-2.779c0 .926.463 1.389 1.204 1.389h.37c.093 0 .185-.093.278-.093.093 0 .185-.092.278-.092.092-.093.185-.093.185-.093h.093s.092 0 .092.093l.185.463v.092c0 .093-.185.278-.648.37-.37.093-.74.186-1.019.186-.648 0-1.203-.185-1.481-.648-.37-.463-.556-1.02-.556-1.853 0-.74.185-1.389.556-1.852.37-.463.833-.648 1.481-.648.556 0 1.02.185 1.39.648.185.37.37 1.019.37 1.76z"/><path id="u02ls" d="M30.408 85.485c.185 0 .278.092.463.185.093.093.185.185.185.463 0 .463-.278.648-.833.648h-.741v-1.296zm-.926-2.038h.648c.463 0 .648.186.648.556 0 .185-.092.37-.185.463a.707.707 0 0 1-.463.185h-.648zm-.834-.648v4.445c0 .093 0 .093.093.093h2.222c.093 0 .278 0 .371-.093.093 0 .278-.092.37-.185.093-.092.186-.185.278-.37.093-.185.093-.37.093-.556 0-.556-.278-.926-.834-1.111.186-.093.37-.185.463-.37.093-.186.186-.464.186-.649 0-.278-.093-.463-.186-.648a.723.723 0 0 0-.37-.37c-.185-.093-.278-.186-.463-.186h-2.223zm0 0zm0 0c-.092 0-.185.093 0 0z"/><path id="u02lt" d="M35.502 86.411V85.3h-.37c-.093 0-.279 0-.371.092-.186 0-.278.093-.37.093l-.279.278c-.092.092-.092.278-.092.37 0 .185.092.37.185.556a.707.707 0 0 0 .463.185c.185 0 .463-.093.834-.463zm1.11.74v.093s0 .093-.092.093l-.555.278h-.093c-.093 0-.185-.185-.37-.556-.37.37-.834.556-1.297.556-.37 0-.74-.093-1.019-.37-.278-.278-.37-.556-.37-1.02 0-.277.092-.555.185-.74.093-.185.278-.37.37-.463l.556-.278c.278-.093.463-.093.648-.185h.741v-.278c0-.278-.092-.463-.185-.648-.093-.093-.278-.186-.556-.186-.277 0-.648.093-1.11.278h-.094s-.092 0-.092-.092l-.185-.463v-.093c0-.093.185-.278.555-.37.37-.093.741-.093 1.02-.093.555 0 .925.093 1.203.37.278.186.37.556.37 1.112v1.852c.186.556.278.926.37 1.204z"/><path id="u02lu" d="M43.188 82.8v4.63c0 .092 0 .092-.092.092h-5.094c-.093 0-.093 0-.093-.092v-4.446s0-.092.093-.092l.741-.185h.093c.092 0 .092 0 .092.092v3.982h1.204v-3.797c0-.092 0-.092.093-.092l.74-.185c.093 0 .093 0 .093.092v3.982h1.204v-3.797s0-.092.093-.092l.74-.185s.093 0 .093.092c0-.092 0-.092 0 0z"/><path id="u02lv" d="M48.375 82.8v4.63c0 .092 0 .092-.093.092h-.741c-.093 0-.093 0-.093-.092V85.3v-1.02a3.773 3.773 0 0 1-.555 1.02l-1.204 2.13-.093.092h-.74c-.093 0-.093 0-.093-.092v-4.538s0-.093.092-.093l.834-.185c.092 0 .092 0 .092.093V86.04c.186-.464.37-.834.556-1.02l1.204-2.13.093-.092.74-.185c-.185.093-.092.093 0 .185 0-.092 0-.092 0 0z"/><path id="u02lw" d="M53.468 87.245v.092s0 .093-.092.093l-.649.185h-.092s-.093 0-.093-.093l-.833-1.296c-.186-.185-.278-.37-.278-.463-.093.185-.185.37-.278.463l-.834 1.296c0 .093-.092.093-.092.093h-.093l-.648-.185c-.093 0-.093-.093-.093-.093s0-.092.093-.092l1.482-2.038-1.297-1.852-.092-.093s0-.092.092-.092l.648-.278h.093s.093 0 .093.092l.648 1.112c0 .092.093.185.185.278.093.092.093.185.185.277.093-.092.186-.277.37-.555l.742-1.112c0-.092.092-.092.092-.092h.093l.648.278c.093 0 .093.092.093.092s0 .093-.093.093l-1.389 1.852z"/><path id="u02lx" d="M59.766 83.355l-.278.555h-.185a1.327 1.327 0 0 0-.926-.37c-.741 0-1.02.556-1.02 1.667s.371 1.667 1.02 1.667c.277 0 .648-.093.926-.37l.092-.093s.093 0 .093.093l.185.463v.092c0 .093-.185.278-.556.37-.37.093-.648.186-.926.186-.648 0-1.111-.185-1.389-.648-.37-.37-.463-1.02-.463-1.76 0-.833.185-1.39.556-1.852.37-.463.833-.741 1.482-.741.277 0 .555.093.926.185.278.185.463.37.463.556 0-.093 0 0 0 0z"/><path id="u02ly" d="M63.192 85.114c0-1.11-.277-1.667-.926-1.667-.648 0-.926.556-.926 1.667 0 .556.093 1.02.278 1.297.185.278.37.463.74.463.371 0 .557-.185.742-.463.092-.185.092-.648.092-1.297zm1.112.093c0 .74-.185 1.39-.556 1.852-.37.463-.833.649-1.482.649-.648 0-1.111-.186-1.481-.649-.37-.463-.556-1.018-.556-1.852 0-.833.185-1.39.556-1.852.37-.463.833-.648 1.481-.648.649 0 1.112.185 1.482.648.37.463.556 1.019.556 1.852z"/><path id="u02lz" d="M67.082 83.633v3.797c0 .092 0 .092-.093.092h-.74c-.093 0-.093 0-.093-.092v-3.797h-1.297c-.092 0-.092 0-.092-.093v-.556c0-.092 0-.092.092-.092h3.427c.093 0 .093 0 .093.092l-.186.556c0 .093-.092.093-.092.093z"/><path id="u02lA" d="M71.898 85.114c0-.555-.093-1.018-.185-1.204-.093-.277-.37-.37-.649-.37-.277 0-.555.093-.926.37v2.686c.278.185.649.278.834.278.37 0 .555-.093.648-.37.278-.278.278-.741.278-1.39zm1.019 0c0 .834-.186 1.482-.463 1.945-.278.463-.741.649-1.204.649-.37 0-.741-.093-1.02-.37v1.944c0 .093 0 .093-.092.185l-.74.185h-.093c-.093 0-.093-.092-.093-.185v-5.279c0-.37-.092-.648-.185-.833-.093-.093-.093-.185-.093-.185s0-.093.093-.093l.648-.278h.093c.092 0 .185.185.278.556.463-.37.833-.556 1.296-.556 1.019-.093 1.575.648 1.575 2.315z"/><path id="u02lB" d="M77.64 83.077l-1.112 3.982c0 .093-.092.185-.092.37-.093.186-.093.371-.093.464 0 .092-.092.278-.092.37-.093.185-.093.278-.186.37-.092.093-.092.186-.185.371l-.278.278c-.092.093-.185.093-.37.185-.185.093-.278.093-.463.093s-.463-.093-.741-.185c-.278-.093-.463-.186-.463-.278v-.093l.278-.556s0-.092.092-.092h.093c.278.185.556.278.74.278.186 0 .371-.093.464-.186.093-.092.185-.277.278-.555l.185-.463h-.37c-.093 0-.093 0-.186-.093l-1.481-4.26v-.093s0-.092.092-.092l.741-.185c.093 0 .093 0 .093.092l.926 2.964c.092.185.185.555.278 1.204 0-.093 0-.186.092-.278 0-.093 0-.278.093-.37 0-.093 0-.186.092-.278l.741-3.242c0-.092.093-.092.093-.092l.74.185c-.092.092 0 .092 0 .185z"/><path id="u02lC" d="M80.603 86.689v-3.056h-1.111v.463c0 1.111-.185 2.037-.463 2.685h1.574zm1.02-3.797v3.797h.462c.093 0 .093 0 .093.092v1.853c0 .092 0 .092-.093.092h-.648c-.093 0-.093 0-.093-.092V87.43h-2.778v1.204c0 .092 0 .092-.093.092h-.648c-.093 0-.093 0-.093-.092V86.78c0-.092 0-.092.093-.092h.37c.186-.37.37-.834.464-1.204.092-.37.092-.741.092-1.297v-1.296c0-.093 0-.093.093-.093h2.778z"/><path id="u02lD" d="M85.79 84.651v-1.667c0-.092 0-.092.092-.092l.741-.185h.093c.092 0 .092 0 .092.092v4.63c0 .093 0 .093-.092.093h-.834v-2.037h-1.667v2.037h-.833c-.093 0-.093 0-.093-.092v-4.446c0-.092 0-.092.093-.092l.74-.185h.093c.093 0 .093 0 .093.092v1.945h1.482z"/><path id="u02lE" d="M91.81 82.8v4.63c0 .092 0 .092-.093.092h-.741c-.093 0-.093 0-.093-.092V85.3v-1.02a3.773 3.773 0 0 1-.555 1.02l-1.204 2.13-.093.092h-.74c-.093 0-.093 0-.093-.092v-4.538s0-.093.092-.093l.834-.185c.092 0 .092 0 .092.093V86.04c.185-.464.37-.834.556-1.02l1.204-2.13.092-.092.741-.185c-.092.093-.092.093 0 .185 0-.092 0-.092 0 0z"/><path id="u02lF" d="M96.718 82.8l.185.555c0 .092 0 .092-.093.092l-.185.093c-.185 0-.278.185-.37.463l-.093.37c0 .093-.092.186-.092.278 0 .093-.093.186-.186.278-.092.093-.185.185-.37.185.37.093.556.37.648.741l.185.649c0 .092.093.185.186.277.092.093.185.093.277.093h.186c.092 0 .092 0 .092.093v.092l-.185.556c0 .093-.093.093-.185.093-.278 0-.556-.093-.741-.186-.185-.092-.37-.37-.463-.74l-.185-.649c0-.185-.093-.278-.186-.37-.092-.093-.185-.093-.185-.186h-.555v1.945c0 .093 0 .093-.093.093h-.741c-.093 0-.093 0-.093-.093v-4.445c0-.093 0-.093.093-.093l.74-.185c.094 0 .094 0 .094.093v1.945H94.958c.093 0 .093 0 .185-.093.093 0 .093-.093.186-.185.092-.093.092-.278.092-.37l.093-.371c.092-.278.185-.463.37-.741.186-.185.463-.278.741-.278 0-.092.093-.092.093 0z"/><path id="u02lG" d="M100.7 85.114c0-1.11-.278-1.667-.926-1.667s-.926.556-.926 1.667c0 .556.092 1.02.278 1.297.185.278.37.463.74.463.371 0 .556-.185.742-.463 0-.185.092-.648.092-1.297zm1.019.093c0 .74-.185 1.39-.556 1.852-.37.463-.833.649-1.482.649-.648 0-1.111-.186-1.481-.649-.37-.463-.556-1.018-.556-1.852 0-.833.185-1.39.556-1.852.37-.463.833-.648 1.481-.648.649 0 1.112.185 1.482.648.37.463.556 1.019.556 1.852z"/><path id="u02lH" d="M104.775 85.485c.185 0 .278.092.463.185.093.093.185.185.185.463 0 .463-.278.648-.833.648h-.741v-1.296zm-.926-2.038h.648c.463 0 .648.186.648.556 0 .185-.092.37-.185.463a.707.707 0 0 1-.463.185h-.648zm-.834-.648v4.445c0 .093 0 .093.093.093h2.222c.093 0 .278 0 .371-.093.093 0 .278-.092.37-.185.093-.092.186-.185.278-.37.093-.185.093-.37.093-.556 0-.556-.278-.926-.834-1.111.186-.093.37-.185.464-.37.092-.186.185-.464.185-.649 0-.278-.093-.463-.185-.648a.723.723 0 0 0-.37-.37c-.186-.093-.279-.186-.464-.186h-2.223zm0 0zm0 0c-.092 0-.092.093 0 0z"/><path id="u02lI" d="M83.752 37.697c.278-.278.37-.555.37-.926 0-.833-1.296-1.667-2.593-1.019-9.724 4.538-16.855 21.95-17.688 22.968-.741-1.945-2.13-5.279-2.964-7.224-1.019-2.593-2.5-8.89-6.112-7.316-1.76.741-.834 3.705-.463 4.353.185.37 6.482 16.67 6.76 17.318.278.556 1.204 2.593 4.168 1.945.556-.093 1.019-.556 1.389-1.111.278-.37.463-.834.648-1.39 5.65-14.725 10.928-22.782 16.115-27.227 0 0 .37-.278.37-.37z"/><path id="u02lJ" d="M45.411 54.367l-2.408-7.594c-.556-1.852-1.111-3.982-1.574-5.742h-.093c-.463 1.76-.926 3.89-1.482 5.742l-2.408 7.594zm-8.89 4.26l-2.686 8.706H28l10.002-30.84h7.224l10.002 30.84h-6.113l-2.778-8.706z"/><path id="u02lK" d="M90.328 56.497c-3.983-.092-7.78.741-7.78 4.168 0 2.223 1.39 3.241 3.242 3.241 2.222 0 3.89-1.481 4.352-3.056.093-.37.186-.833.186-1.204zm.74 10.836l-.37-2.5h-.093c-1.389 1.76-3.704 2.963-6.575 2.963-4.445 0-7.038-3.241-7.038-6.668 0-5.65 5-8.428 13.243-8.428v-.37c0-1.482-.556-3.89-4.538-3.89-2.223 0-4.445.649-6.02 1.667l-1.111-3.704c1.667-1.019 4.538-1.945 8.057-1.945 7.131 0 9.169 4.538 9.169 9.354v8.057c0 2.037.092 3.982.278 5.371h-5.001z"/><path id="u02lL" d="M114.314 34.919h5.65v32.507h-5.65z"/><path id="u02lM" d="M128.206 45.106l3.982 11.947a44.21 44.21 0 0 1 1.204 4.353h.093c.37-1.297.74-2.964 1.204-4.353l3.519-11.854h6.02l-5.557 15.188c-3.056 8.335-5.094 12.04-7.78 14.355-2.222 1.945-4.445 2.686-5.927 2.87l-1.296-4.722c.926-.186 2.13-.741 3.334-1.575 1.019-.648 2.315-2.037 3.056-3.519.185-.37.37-.74.37-1.019 0-.185 0-.555-.277-1.111L122 45.199h6.205z"/><path id="u02lN" d="M93.476 37.605s5.28 1.945 6.483 3.148c1.204 1.297 3.797 2.408 5.742 1.853 1.945-.556 3.89-2.964 3.52-4.538-.371-1.575 1.944-4.168 3.704-4.723 1.76-.556 10.095-3.612 11.391-8.15l-2.037-.093s.185 3.334-5.372 4.168c-5.557.833-10.835 2.778-11.391 4.075-.556 1.389.648-4.075-.37-5.835-1.02-1.76-16.856-13.058-18.893-14.262-2.038-1.204-1.204 2.315-.463 3.426.74 1.112 10.65 11.206 11.113 12.04.463.833 2.037 6.39 2.037 6.39l.093 1.575-5.186-.093z"/><path id="u02lO" d="M101.719 67.426v-22.32h5.65v22.32z"/></defs><g><g transform="translate(-28 -13)"><g><g><g><use fill="#fff" xlink:href="#u02la"/></g><g><use fill="#fff" xlink:href="#u02lb"/></g><g><use fill="#fff" xlink:href="#u02lc"/></g><g><use fill="#fff" xlink:href="#u02ld"/></g><g><use fill="#fff" xlink:href="#u02le"/></g><g><use fill="#fff" xlink:href="#u02lf"/></g><g><use fill="#fff" xlink:href="#u02lg"/></g><g><use fill="#fff" xlink:href="#u02lh"/></g><g><use fill="#fff" xlink:href="#u02li"/></g><g><use fill="#fff" xlink:href="#u02lj"/></g><g><use fill="#fff" xlink:href="#u02lk"/></g><g><use fill="#fff" xlink:href="#u02ll"/></g><g><use fill="#fff" xlink:href="#u02lm"/></g><g><use fill="#fff" xlink:href="#u02ln"/></g><g><use fill="#fff" xlink:href="#u02lo"/></g><g><use fill="#fff" xlink:href="#u02lp"/></g><g><use fill="#fff" xlink:href="#u02lq"/></g><g><use fill="#fff" xlink:href="#u02lr"/></g><g><use fill="#fff" xlink:href="#u02ls"/></g><g><use fill="#fff" xlink:href="#u02lt"/></g><g><use fill="#fff" xlink:href="#u02lu"/></g><g><use fill="#fff" xlink:href="#u02lv"/></g><g><use fill="#fff" xlink:href="#u02lw"/></g><g><use fill="#fff" xlink:href="#u02lx"/></g><g><use fill="#fff" xlink:href="#u02ly"/></g><g><use fill="#fff" xlink:href="#u02lz"/></g><g><use fill="#fff" xlink:href="#u02lA"/></g><g><use fill="#fff" xlink:href="#u02lB"/></g><g><use fill="#fff" xlink:href="#u02lC"/></g><g><use fill="#fff" xlink:href="#u02lD"/></g><g><use fill="#fff" xlink:href="#u02lE"/></g><g><use fill="#fff" xlink:href="#u02lF"/></g><g><use fill="#fff" xlink:href="#u02lG"/></g><g><use fill="#fff" xlink:href="#u02lH"/></g></g></g><g><use fill="#fce35f" xlink:href="#u02lI"/></g><g><use fill="#fff" xlink:href="#u02lJ"/></g><g><use fill="#fff" xlink:href="#u02lK"/></g><g><use fill="#fff" xlink:href="#u02lL"/></g><g><use fill="#fff" xlink:href="#u02lM"/></g><g><use fill="#fff" xlink:href="#u02lN"/></g><g><use fill="#fff" xlink:href="#u02lO"/></g></g></g></svg>