<svg xmlns="http://www.w3.org/2000/svg" xmlns:xlink="http://www.w3.org/1999/xlink" width="63" height="36" viewBox="0 0 63 36"><defs><path id="gmzza" d="M46.1 38.574c.15-.15.2-.3.2-.5 0-.45-.7-.899-1.4-.55-5.246 2.45-9.094 11.844-9.544 12.394-.4-1.05-1.15-2.848-1.599-3.898-.55-1.4-1.35-4.797-3.298-3.948-.95.4-.45 2-.25 2.349.1.2 3.498 8.995 3.648 9.345.15.3.65 1.399 2.249 1.05.3-.05.55-.3.75-.6.15-.2.25-.45.35-.75 3.047-7.946 5.896-12.293 8.694-14.692 0 0 .2-.15.2-.2z"/><path id="gmzzb" d="M25.395 47.571l-1.3-4.098c-.3-.999-.6-2.148-.849-3.098h-.05c-.25.95-.5 2.099-.8 3.098l-1.299 4.098zm-4.798 2.299l-1.449 4.697H16l5.397-16.64h3.898l5.397 16.64h-3.298l-1.5-4.697z"/><path id="gmzzc" d="M49.66 48.758c-2.149-.05-4.198.4-4.198 2.249 0 1.2.75 1.749 1.75 1.749 1.199 0 2.098-.8 2.348-1.65.05-.2.1-.449.1-.649zm.4 5.847l-.2-1.35h-.05c-.75.95-1.999 1.6-3.548 1.6-2.399 0-3.798-1.75-3.798-3.598 0-3.049 2.698-4.548 7.146-4.548v-.2c0-.8-.3-2.098-2.449-2.098-1.199 0-2.398.35-3.248.899l-.6-1.999c.9-.55 2.45-1.05 4.348-1.05 3.848 0 4.947 2.45 4.947 5.048v4.347c0 1.1.05 2.15.15 2.899H50.06z"/><path id="gmzzd" d="M62.619 37.07h3.048v17.54h-3.048z"/><path id="gmzze" d="M70.127 42.678l2.149 6.447c.25.75.5 1.649.65 2.349h.05c.2-.7.399-1.6.649-2.35l1.899-6.396h3.248l-2.998 8.196c-1.65 4.497-2.749 6.496-4.198 7.746-1.2 1.049-2.399 1.449-3.198 1.549l-.7-2.549c.5-.1 1.15-.4 1.8-.85.549-.35 1.249-1.099 1.648-1.898.1-.2.2-.4.2-.55 0-.1 0-.3-.15-.6L66.78 42.728h3.348z"/><path id="gmzzf" d="M51.373 38.276s2.848 1.05 3.498 1.7c.65.699 2.048 1.298 3.098.999 1.05-.3 2.099-1.6 1.899-2.449-.2-.85 1.05-2.249 1.999-2.549.95-.3 5.447-1.948 6.146-4.397l-1.1-.05s.1 1.799-2.898 2.249c-2.998.45-5.846 1.499-6.146 2.198-.3.75.35-2.198-.2-3.148-.55-.95-9.095-7.046-10.194-7.695-1.1-.65-.65 1.249-.25 1.848.4.6 5.747 6.047 5.996 6.497.25.45 1.1 3.448 1.1 3.448l.05.85-2.799-.05z"/><path id="gmzzg" d="M55.816 54.655V42.612h3.048v12.043z"/></defs><g><g transform="translate(-16 -25)"><g><use fill="#fce35f" xlink:href="#gmzza"/></g><g><use fill="#636b76" xlink:href="#gmzzb"/></g><g><use fill="#636b76" xlink:href="#gmzzc"/></g><g><use fill="#636b76" xlink:href="#gmzzd"/></g><g><use fill="#636b76" xlink:href="#gmzze"/></g><g><use fill="#636b76" xlink:href="#gmzzf"/></g><g><use fill="#636b76" xlink:href="#gmzzg"/></g></g></g></svg>