<svg xmlns="http://www.w3.org/2000/svg" xmlns:xlink="http://www.w3.org/1999/xlink"><defs><path id="heaza" d="M306 4423h14"/><path id="heazb" d="M313 4416l7 7-7 7"/><path id="umsma" d="M69.764 1755.518s3.115 1.148 3.825 1.858c.71.765 2.24 1.421 3.388 1.093 1.148-.328 2.295-1.749 2.077-2.678-.219-.929 1.147-2.459 2.186-2.787 1.038-.327 5.956-2.13 6.721-4.808l-1.202-.055s.11 1.967-3.17 2.459c-3.278.492-6.393 1.64-6.721 2.404-.328.82.382-2.404-.219-3.442-.6-1.039-9.945-7.706-11.148-8.416-1.202-.71-.71 1.366-.273 2.022.437.656 6.285 6.612 6.558 7.104.273.492 1.202 3.77 1.202 3.77l.055.93-3.06-.055z"/><path id="71o5a" d="M333.234 46.694v2.298a1.532 1.532 0 0 1-1.67 1.532 15.159 15.159 0 0 1-6.61-2.351 14.937 14.937 0 0 1-4.596-4.596 15.159 15.159 0 0 1-2.352-6.641 1.532 1.532 0 0 1 1.524-1.67h2.298a1.532 1.532 0 0 1 1.532 1.317c.097.736.277 1.458.537 2.153.21.56.075 1.19-.345 1.616l-.973.973a12.256 12.256 0 0 0 4.596 4.596l.973-.973a1.532 1.532 0 0 1 1.616-.345c.695.26 1.417.44 2.152.537.77.108 1.337.777 1.318 1.554zM327.91 34.5a6.894 6.894 0 0 1 6.09 6.082m-6.09-3.018a3.83 3.83 0 0 1 3.026 3.026"/><path id="zuxga" d="M65 1096.269v.736a8 8 0 1 1-4.744-7.312"/><path id="zuxgb" d="M65 1090.616l-8.053 8.06-2.416-2.415"/><path id="k9qfa" d="M27 1939c0-5.523 4.477-10 10-10s10 4.477 10 10-4.477 10-10 10-10-4.477-10-10z"/><path id="k9qfb" d="M37 1933v6l4 2"/><path id="uu4ja" d="M37 2053v22"/><path id="uu4jb" d="M42 2057h-7.5a3.5 3.5 0 1 0 0 7h5a3.5 3.5 0 1 1 0 7H31"/><path id="fv5da" d="M116 572s3.5-7 9.625-7 9.625 7 9.625 7-3.5 7-9.625 7-9.625-7-9.625-7z"/><path id="fv5db" d="M122.625 572a3 3 0 1 1 6 0 3 3 0 0 1-6 0z"/><path id="ixuda" d="M47 1275c0-1 1-2 2-2h14c1 0 2 1 2 2v7c0 1-1 2-2 2H49c-1 0-2-1-2-2z"/><path id="ixudb" d="M51 1273v-4a5 5 0 0 1 10 0v4"/><path id="d7rda" d="M586 213.556a7.449 7.449 0 0 1-.8 3.377 7.556 7.556 0 0 1-6.756 4.178 7.449 7.449 0 0 1-3.377-.8L570 222l1.689-5.067a7.449 7.449 0 0 1-.8-3.377 7.556 7.556 0 0 1 4.178-6.756 7.449 7.449 0 0 1 3.377-.8h.445a7.538 7.538 0 0 1 7.111 7.111z"/><path id="vcd6a" d="M24 2207c0-1 1-2 2-2h22c1 0 2 1 2 2v11c0 1-1 2-2 2H26c-1 0-2-1-2-2z"/><path id="vcd6b" d="M34 2212.5a3 3 0 1 1 6 0 3 3 0 0 1-6 0z"/><path id="vcd6d" d="M29.5 2206.5v12"/><path id="vcd6e" d="M44.5 2206.5v12"/><clipPath id="vcd6c"><use fill="#fff" xlink:href="#vcd6a"/></clipPath><clipPath id="vcd6f"><use fill="#fff" xlink:href="#vcd6b"/></clipPath><path id="egila" d="M574.064 96h-2.438c-.898 0-1.626-.716-1.626-1.6v-5.6c0-.884.728-1.6 1.626-1.6h2.438m5.69-1.6v-3.2c0-1.326-1.091-2.4-2.438-2.4l-3.252 7.2V96h9.17a1.618 1.618 0 0 0 1.626-1.36l1.122-7.2a1.583 1.583 0 0 0-.381-1.29 1.637 1.637 0 0 0-1.245-.55z"/><path id="6olza" d="M49.266 1454.27a2.5 2.5 0 1 1-1.77-4.27h17.5m0-4h-12a2 2 0 1 1 1.41-3.41m3 14.82a2 2 0 1 1-1.41-3.41h9"/>
    <style>
      .cls-1 {
        fill: #636b76;
      }

      .cls-2 {
        fill: #fce35f;
      }
    </style>
  <path id="u02la" d="M31.427 72.241c.463 0 .74.093.926.37.278.279.37.65.37 1.297 0 .649-.092 1.112-.37 1.39-.185.185-.463.277-.834.277h-.092zm-.926 3.242h-.093c-.37 0-.648-.093-.834-.278-.277-.278-.37-.74-.37-1.39 0-.647.093-1.018.37-1.296.186-.185.463-.278.927-.278zm.926-4.909h-.834c-.092 0-.092 0-.092.093v.834h-.093c-.648 0-1.204.185-1.574.555-.464.463-.649 1.112-.649 1.945 0 .926.278 1.574.649 1.945.37.37.926.556 1.574.556h.093v1.018h.833a.2.2 0 0 0 .185-.185v-.926c.649 0 1.204-.185 1.575-.556.463-.463.648-1.111.648-1.945 0-.926-.278-1.574-.648-1.944-.37-.37-.926-.556-1.575-.556v-.834s-.092-.092-.092 0z"/><path id="u02lb" d="M38.558 72.704v4.631c0 .093 0 .093-.093.093h-.74c-.093 0-.093 0-.093-.093v-2.13-1.019a3.773 3.773 0 0 1-.556 1.019l-1.204 2.13-.093.093h-.74c-.093 0-.093 0-.093-.093v-4.538s0-.093.092-.093l.834-.185c.093 0 .093 0 .093.093V75.946c.185-.463.37-.834.555-1.019l1.204-2.13.093-.093.74-.185c-.185.093-.092.093 0 .185-.092-.092 0-.092 0 0z"/><path id="u02lc" d="M42.633 74.65v-1.668c0-.092 0-.092.092-.092l.741-.186h.093c.092 0 .092 0 .092.093v4.63c0 .093 0 .093-.092.093h-.834v-2.037h-1.667v2.037h-.833c-.093 0-.093 0-.093-.092v-4.446c0-.092 0-.092.093-.092l.74-.186h.093c.093 0 .093 0 .093.093v1.945h1.482z"/><path id="u02ld" d="M47.17 76.409v-1.111h-.37c-.092 0-.278 0-.37.092-.186 0-.278.093-.37.093l-.279.278c-.092.092-.092.277-.092.37 0 .185.092.37.185.556a.707.707 0 0 0 .463.185c.278 0 .556-.185.834-.463zm1.205.648v.093s0 .092-.093.092l-.556.278h-.092c-.093 0-.186-.185-.37-.555-.371.37-.834.555-1.297.555-.37 0-.741-.092-1.02-.37-.277-.278-.37-.556-.37-1.019 0-.278.093-.556.186-.74.092-.186.278-.371.37-.464l.556-.278c.278-.092.463-.092.648-.185h.741v-.278c0-.278-.093-.463-.185-.648-.093-.093-.278-.185-.556-.185s-.648.092-1.111.278h-.093s-.092 0-.092-.093l-.186-.463v-.093c0-.092.186-.278.556-.37.37-.093.74-.093 1.019-.093.555 0 .926.093 1.204.37.278.186.37.556.37 1.112v1.852c.093.556.185.926.37 1.204z"/><path id="u02le" d="M52.264 74.65v-1.668c0-.092 0-.092.093-.092l.74-.186h.093c.093 0 .093 0 .093.093v4.63c0 .093 0 .093-.093.093h-.833v-2.037H50.69v2.037h-.833c-.093 0-.093 0-.093-.092v-4.446c0-.092 0-.092.092-.092l.741-.186h.093c.092 0 .092 0 .092.093v1.945h1.482z"/><path id="u02lf" d="M57.821 73.26l-.278.556h-.185a1.327 1.327 0 0 0-.926-.37c-.741 0-1.019.555-1.019 1.666 0 1.112.37 1.667 1.019 1.667.278 0 .648-.092.926-.37l.093-.093s.092 0 .092.093l.185.463v.093c0 .092-.185.277-.555.37-.37.093-.649.185-.926.185-.649 0-1.112-.185-1.39-.648-.37-.37-.463-1.019-.463-1.76 0-.833.186-1.389.556-1.852.37-.463.833-.74 1.482-.74.278 0 .555.092.926.184.37.093.463.37.463.556z"/><path id="u02lg" d="M61.34 75.112c0-1.111-.278-1.667-.926-1.667s-.926.556-.926 1.667c0 .556.093 1.02.278 1.297.185.278.37.463.74.463.371 0 .556-.185.742-.463.185-.278.092-.741.092-1.297zm1.019 0c0 .741-.185 1.39-.556 1.853-.37.463-.833.648-1.482.648-.648 0-1.11-.185-1.481-.648-.37-.463-.556-1.02-.556-1.853 0-.74.185-1.389.556-1.852.37-.463.833-.648 1.481-.648.649 0 1.112.185 1.482.648.37.463.556 1.019.556 1.852z"/><path id="u02lh" d="M65.415 75.39c.185 0 .278.093.463.185.093.093.185.186.185.463 0 .464-.277.649-.833.649h-.741V75.39zm-.926-1.945h.648c.463 0 .649.186.649.556 0 .185-.093.37-.186.463a.707.707 0 0 1-.463.185h-.648zm-.834-.648v4.445c0 .093 0 .093.093.093h2.222c.093 0 .279 0 .371-.093.093 0 .278-.092.37-.185.093-.092.186-.185.278-.37.093-.185.093-.37.093-.556 0-.556-.278-.926-.833-1.111.185-.093.37-.185.463-.37.092-.186.185-.464.185-.649 0-.278-.093-.463-.185-.648a.723.723 0 0 0-.37-.37c-.186-.093-.279-.186-.464-.186h-2.223zm0 0c-.092 0-.092 0 0 0z"/><path id="u02li" d="M70.972 75.112c0-1.111-.278-1.667-.926-1.667-.649 0-.926.556-.926 1.667 0 .556.092 1.02.277 1.297.186.278.37.463.741.463.37 0 .556-.185.741-.463 0-.278.093-.741.093-1.297zm1.019 0c0 .741-.186 1.39-.556 1.853-.37.463-.834.648-1.482.648s-1.111-.185-1.482-.648c-.37-.463-.555-1.02-.555-1.853 0-.74.185-1.389.555-1.852.37-.463.834-.648 1.482-.648s1.111.185 1.482.648c.463.463.556 1.019.556 1.852z"/><path id="u02lj" d="M75.695 74.65c0-.834-.278-1.297-.834-1.297-.555 0-.833.463-.926 1.296zm1.019.37v.278h-2.779c0 .926.463 1.389 1.204 1.389h.37c.093 0 .186-.093.279-.093.092 0 .185-.092.277-.092.093-.093.186-.093.186-.093h.092s.093 0 .093.093l.185.463v.092c0 .093-.185.278-.648.37-.37.093-.741.186-1.019.186-.648 0-1.204-.185-1.482-.648-.37-.463-.555-1.02-.555-1.853 0-.74.185-1.389.555-1.852.37-.463.834-.648 1.482-.648.556 0 1.019.185 1.39.648.184.37.37 1.019.37 1.76z"/><path id="u02lk" d="M79.955 73.723l-.278-.37v-.093c0-.185.185-.37.556-.463.37-.093.648-.185 1.019-.185.185 0 .463 0 .648.092.185.093.463.186.556.464.185.185.277.463.277.833 0 .463-.185.834-.648 1.019.278.092.463.185.556.463.092.278.185.463.185.74 0 .371-.093.742-.37.927-.278.278-.741.463-1.39.463-.37 0-.74-.093-1.018-.185-.37-.186-.463-.278-.463-.37v-.093l.185-.463s0-.093.093-.093h.092s.093 0 .093.093c.092 0 .092.092.092.092s.093 0 .093.093c.093 0 .093.092.093.092H80.88c.278 0 .463-.092.556-.185.185-.092.278-.278.278-.556 0-.277-.093-.37-.278-.555-.185-.093-.37-.185-.648-.185h-.278v-.556-.093h.37c.556 0 .834-.185.834-.648 0-.278-.093-.37-.185-.463-.186-.093-.278-.185-.464-.185-.277 0-.555.092-.833.278l-.093.092c-.092 0-.092.093-.185 0 0 .093 0 0 0 0z"/><path id="u02ll" d="M86.438 76.687v-3.149h-1.111v.463c0 1.111-.186 2.037-.463 2.686zm.926-3.797v3.797h.463c.093 0 .093 0 .093.092v1.853c0 .092 0 .092-.093.092h-.648c-.093 0-.093 0-.093-.092v-1.204h-2.778v1.204c0 .092 0 .092-.093.092h-.648c-.093 0-.093 0-.093-.092v-1.853c0-.092 0-.092.093-.092h.37c.186-.37.37-.834.463-1.204.093-.37.093-.741.093-1.297V72.89c0-.093 0-.093.093-.093h2.778v.093z"/><path id="u02lm" d="M91.624 75.112c0-1.111-.278-1.667-.926-1.667s-.926.556-.926 1.667c0 .556.093 1.02.278 1.297.185.278.37.463.74.463.371 0 .556-.185.742-.463 0-.278.092-.741.092-1.297zm1.019 0c0 .741-.185 1.39-.556 1.853-.37.463-.833.648-1.482.648-.648 0-1.11-.185-1.481-.648-.37-.463-.556-1.02-.556-1.853 0-.74.185-1.389.556-1.852.37-.463.833-.648 1.481-.648.649 0 1.112.185 1.482.648.37.463.556 1.019.556 1.852z"/><path id="u02ln" d="M96.533 75.02c0-.556-.093-1.019-.186-1.204-.092-.278-.37-.37-.648-.37s-.556.092-.926.37v2.686c.278.185.648.277.833.277.37 0 .556-.092.649-.37.278-.278.278-.741.278-1.39zm1.018 0c0 .833-.185 1.482-.463 1.945-.278.463-.74.648-1.204.648-.37 0-.74-.093-1.018-.37v1.944c0 .093 0 .093-.093.185l-.74.186h-.094c-.092 0-.092-.093-.092-.186v-5.278c0-.37-.093-.649-.185-.834-.093-.092-.093-.185-.093-.185s0-.093.093-.093l.648-.278h.092c.093 0 .186.186.278.556.463-.37.834-.556 1.297-.556 1.019-.092 1.574.741 1.574 2.316z"/><path id="u02lo" d="M101.348 75.112c0-1.111-.277-1.667-.926-1.667-.648 0-.926.556-.926 1.667 0 .556.093 1.02.278 1.297.185.278.37.463.74.463.371 0 .557-.185.742-.463.092-.278.092-.741.092-1.297zm1.112 0c0 .741-.186 1.39-.556 1.853-.37.463-.833.648-1.482.648-.648 0-1.111-.185-1.482-.648-.37-.463-.555-1.02-.555-1.853 0-.74.185-1.389.555-1.852.37-.463.834-.648 1.482-.648.649 0 1.112.185 1.482.648.37.463.556 1.019.556 1.852z"/><path id="u02lp" d="M105.516 75.39c.185 0 .278.093.463.185.093.093.185.186.185.463 0 .464-.278.649-.833.649h-.741V75.39zm-.926-1.945h.648c.463 0 .648.186.648.556 0 .185-.092.37-.185.463a.707.707 0 0 1-.463.185h-.648zm-.926-.648v4.445c0 .093 0 .093.092.093h2.223c.093 0 .278 0 .37-.093.093 0 .278-.092.37-.185a1.28 1.28 0 0 0 .279-.37c.092-.185.092-.37.092-.556 0-.556-.278-.926-.833-1.111.185-.093.37-.185.463-.37.092-.186.185-.464.185-.649 0-.278-.093-.463-.185-.648a.723.723 0 0 0-.37-.37c-.186-.093-.278-.186-.464-.186h-2.222zm0 0c-.093 0 0 0 0 0z"/><path id="u02lq" d="M109.313 75.298v1.389h.556c.185 0 .37-.093.555-.185.186-.093.278-.278.278-.556 0-.185 0-.278-.092-.37-.093-.093-.186-.186-.278-.186-.093 0-.185-.092-.278-.092H109.313zm0-.834h.74c.557 0 1.02.185 1.39.463.278.278.37.648.37 1.019 0 .463-.092.74-.37 1.019-.278.277-.833.463-1.482.463h-1.389c-.093 0-.093 0-.093-.093V72.89s0-.093.093-.093l.741-.185c.093 0 .093 0 .093.092v1.76z"/><path id="u02lr" d="M115.425 74.65c0-.834-.277-1.297-.833-1.297-.556 0-.834.463-.926 1.296zm1.02.37v.278h-2.779c0 .926.463 1.389 1.204 1.389h.37c.093 0 .185-.093.278-.093.093 0 .185-.092.278-.092.092-.093.185-.093.185-.093h.093s.092 0 .092.093l.185.463v.092c0 .093-.185.278-.648.37-.37.093-.74.186-1.019.186-.648 0-1.203-.185-1.481-.648-.37-.463-.556-1.02-.556-1.853 0-.74.185-1.389.556-1.852.37-.463.833-.648 1.481-.648.556 0 1.02.185 1.39.648.185.37.37 1.019.37 1.76z"/><path id="u02ls" d="M30.408 85.485c.185 0 .278.092.463.185.093.093.185.185.185.463 0 .463-.278.648-.833.648h-.741v-1.296zm-.926-2.038h.648c.463 0 .648.186.648.556 0 .185-.092.37-.185.463a.707.707 0 0 1-.463.185h-.648zm-.834-.648v4.445c0 .093 0 .093.093.093h2.222c.093 0 .278 0 .371-.093.093 0 .278-.092.37-.185.093-.092.186-.185.278-.37.093-.185.093-.37.093-.556 0-.556-.278-.926-.834-1.111.186-.093.37-.185.463-.37.093-.186.186-.464.186-.649 0-.278-.093-.463-.186-.648a.723.723 0 0 0-.37-.37c-.185-.093-.278-.186-.463-.186h-2.223zm0 0zm0 0c-.092 0-.185.093 0 0z"/><path id="u02lt" d="M35.502 86.411V85.3h-.37c-.093 0-.279 0-.371.092-.186 0-.278.093-.37.093l-.279.278c-.092.092-.092.278-.092.37 0 .185.092.37.185.556a.707.707 0 0 0 .463.185c.185 0 .463-.093.834-.463zm1.11.74v.093s0 .093-.092.093l-.555.278h-.093c-.093 0-.185-.185-.37-.556-.37.37-.834.556-1.297.556-.37 0-.74-.093-1.019-.37-.278-.278-.37-.556-.37-1.02 0-.277.092-.555.185-.74.093-.185.278-.37.37-.463l.556-.278c.278-.093.463-.093.648-.185h.741v-.278c0-.278-.092-.463-.185-.648-.093-.093-.278-.186-.556-.186-.277 0-.648.093-1.11.278h-.094s-.092 0-.092-.092l-.185-.463v-.093c0-.093.185-.278.555-.37.37-.093.741-.093 1.02-.093.555 0 .925.093 1.203.37.278.186.37.556.37 1.112v1.852c.186.556.278.926.37 1.204z"/><path id="u02lu" d="M43.188 82.8v4.63c0 .092 0 .092-.092.092h-5.094c-.093 0-.093 0-.093-.092v-4.446s0-.092.093-.092l.741-.185h.093c.092 0 .092 0 .092.092v3.982h1.204v-3.797c0-.092 0-.092.093-.092l.74-.185c.093 0 .093 0 .093.092v3.982h1.204v-3.797s0-.092.093-.092l.74-.185s.093 0 .093.092c0-.092 0-.092 0 0z"/><path id="u02lv" d="M48.375 82.8v4.63c0 .092 0 .092-.093.092h-.741c-.093 0-.093 0-.093-.092V85.3v-1.02a3.773 3.773 0 0 1-.555 1.02l-1.204 2.13-.093.092h-.74c-.093 0-.093 0-.093-.092v-4.538s0-.093.092-.093l.834-.185c.092 0 .092 0 .092.093V86.04c.186-.464.37-.834.556-1.02l1.204-2.13.093-.092.74-.185c-.185.093-.092.093 0 .185 0-.092 0-.092 0 0z"/><path id="u02lw" d="M53.468 87.245v.092s0 .093-.092.093l-.649.185h-.092s-.093 0-.093-.093l-.833-1.296c-.186-.185-.278-.37-.278-.463-.093.185-.185.37-.278.463l-.834 1.296c0 .093-.092.093-.092.093h-.093l-.648-.185c-.093 0-.093-.093-.093-.093s0-.092.093-.092l1.482-2.038-1.297-1.852-.092-.093s0-.092.092-.092l.648-.278h.093s.093 0 .093.092l.648 1.112c0 .092.093.185.185.278.093.092.093.185.185.277.093-.092.186-.277.37-.555l.742-1.112c0-.092.092-.092.092-.092h.093l.648.278c.093 0 .093.092.093.092s0 .093-.093.093l-1.389 1.852z"/><path id="u02lx" d="M59.766 83.355l-.278.555h-.185a1.327 1.327 0 0 0-.926-.37c-.741 0-1.02.556-1.02 1.667s.371 1.667 1.02 1.667c.277 0 .648-.093.926-.37l.092-.093s.093 0 .093.093l.185.463v.092c0 .093-.185.278-.556.37-.37.093-.648.186-.926.186-.648 0-1.111-.185-1.389-.648-.37-.37-.463-1.02-.463-1.76 0-.833.185-1.39.556-1.852.37-.463.833-.741 1.482-.741.277 0 .555.093.926.185.278.185.463.37.463.556 0-.093 0 0 0 0z"/><path id="u02ly" d="M63.192 85.114c0-1.11-.277-1.667-.926-1.667-.648 0-.926.556-.926 1.667 0 .556.093 1.02.278 1.297.185.278.37.463.74.463.371 0 .557-.185.742-.463.092-.185.092-.648.092-1.297zm1.112.093c0 .74-.185 1.39-.556 1.852-.37.463-.833.649-1.482.649-.648 0-1.111-.186-1.481-.649-.37-.463-.556-1.018-.556-1.852 0-.833.185-1.39.556-1.852.37-.463.833-.648 1.481-.648.649 0 1.112.185 1.482.648.37.463.556 1.019.556 1.852z"/><path id="u02lz" d="M67.082 83.633v3.797c0 .092 0 .092-.093.092h-.74c-.093 0-.093 0-.093-.092v-3.797h-1.297c-.092 0-.092 0-.092-.093v-.556c0-.092 0-.092.092-.092h3.427c.093 0 .093 0 .093.092l-.186.556c0 .093-.092.093-.092.093z"/><path id="u02lA" d="M71.898 85.114c0-.555-.093-1.018-.185-1.204-.093-.277-.37-.37-.649-.37-.277 0-.555.093-.926.37v2.686c.278.185.649.278.834.278.37 0 .555-.093.648-.37.278-.278.278-.741.278-1.39zm1.019 0c0 .834-.186 1.482-.463 1.945-.278.463-.741.649-1.204.649-.37 0-.741-.093-1.02-.37v1.944c0 .093 0 .093-.092.185l-.74.185h-.093c-.093 0-.093-.092-.093-.185v-5.279c0-.37-.092-.648-.185-.833-.093-.093-.093-.185-.093-.185s0-.093.093-.093l.648-.278h.093c.092 0 .185.185.278.556.463-.37.833-.556 1.296-.556 1.019-.093 1.575.648 1.575 2.315z"/><path id="u02lB" d="M77.64 83.077l-1.112 3.982c0 .093-.092.185-.092.37-.093.186-.093.371-.093.464 0 .092-.092.278-.092.37-.093.185-.093.278-.186.37-.092.093-.092.186-.185.371l-.278.278c-.092.093-.185.093-.37.185-.185.093-.278.093-.463.093s-.463-.093-.741-.185c-.278-.093-.463-.186-.463-.278v-.093l.278-.556s0-.092.092-.092h.093c.278.185.556.278.74.278.186 0 .371-.093.464-.186.093-.092.185-.277.278-.555l.185-.463h-.37c-.093 0-.093 0-.186-.093l-1.481-4.26v-.093s0-.092.092-.092l.741-.185c.093 0 .093 0 .093.092l.926 2.964c.092.185.185.555.278 1.204 0-.093 0-.186.092-.278 0-.093 0-.278.093-.37 0-.093 0-.186.092-.278l.741-3.242c0-.092.093-.092.093-.092l.74.185c-.092.092 0 .092 0 .185z"/><path id="u02lC" d="M80.603 86.689v-3.056h-1.111v.463c0 1.111-.185 2.037-.463 2.685h1.574zm1.02-3.797v3.797h.462c.093 0 .093 0 .093.092v1.853c0 .092 0 .092-.093.092h-.648c-.093 0-.093 0-.093-.092V87.43h-2.778v1.204c0 .092 0 .092-.093.092h-.648c-.093 0-.093 0-.093-.092V86.78c0-.092 0-.092.093-.092h.37c.186-.37.37-.834.464-1.204.092-.37.092-.741.092-1.297v-1.296c0-.093 0-.093.093-.093h2.778z"/><path id="u02lD" d="M85.79 84.651v-1.667c0-.092 0-.092.092-.092l.741-.185h.093c.092 0 .092 0 .092.092v4.63c0 .093 0 .093-.092.093h-.834v-2.037h-1.667v2.037h-.833c-.093 0-.093 0-.093-.092v-4.446c0-.092 0-.092.093-.092l.74-.185h.093c.093 0 .093 0 .093.092v1.945h1.482z"/><path id="u02lE" d="M91.81 82.8v4.63c0 .092 0 .092-.093.092h-.741c-.093 0-.093 0-.093-.092V85.3v-1.02a3.773 3.773 0 0 1-.555 1.02l-1.204 2.13-.093.092h-.74c-.093 0-.093 0-.093-.092v-4.538s0-.093.092-.093l.834-.185c.092 0 .092 0 .092.093V86.04c.185-.464.37-.834.556-1.02l1.204-2.13.092-.092.741-.185c-.092.093-.092.093 0 .185 0-.092 0-.092 0 0z"/><path id="u02lF" d="M96.718 82.8l.185.555c0 .092 0 .092-.093.092l-.185.093c-.185 0-.278.185-.37.463l-.093.37c0 .093-.092.186-.092.278 0 .093-.093.186-.186.278-.092.093-.185.185-.37.185.37.093.556.37.648.741l.185.649c0 .092.093.185.186.277.092.093.185.093.277.093h.186c.092 0 .092 0 .092.093v.092l-.185.556c0 .093-.093.093-.185.093-.278 0-.556-.093-.741-.186-.185-.092-.37-.37-.463-.74l-.185-.649c0-.185-.093-.278-.186-.37-.092-.093-.185-.093-.185-.186h-.555v1.945c0 .093 0 .093-.093.093h-.741c-.093 0-.093 0-.093-.093v-4.445c0-.093 0-.093.093-.093l.74-.185c.094 0 .094 0 .094.093v1.945H94.958c.093 0 .093 0 .185-.093.093 0 .093-.093.186-.185.092-.093.092-.278.092-.37l.093-.371c.092-.278.185-.463.37-.741.186-.185.463-.278.741-.278 0-.092.093-.092.093 0z"/><path id="u02lG" d="M100.7 85.114c0-1.11-.278-1.667-.926-1.667s-.926.556-.926 1.667c0 .556.092 1.02.278 1.297.185.278.37.463.74.463.371 0 .556-.185.742-.463 0-.185.092-.648.092-1.297zm1.019.093c0 .74-.185 1.39-.556 1.852-.37.463-.833.649-1.482.649-.648 0-1.111-.186-1.481-.649-.37-.463-.556-1.018-.556-1.852 0-.833.185-1.39.556-1.852.37-.463.833-.648 1.481-.648.649 0 1.112.185 1.482.648.37.463.556 1.019.556 1.852z"/><path id="u02lH" d="M104.775 85.485c.185 0 .278.092.463.185.093.093.185.185.185.463 0 .463-.278.648-.833.648h-.741v-1.296zm-.926-2.038h.648c.463 0 .648.186.648.556 0 .185-.092.37-.185.463a.707.707 0 0 1-.463.185h-.648zm-.834-.648v4.445c0 .093 0 .093.093.093h2.222c.093 0 .278 0 .371-.093.093 0 .278-.092.37-.185.093-.092.186-.185.278-.37.093-.185.093-.37.093-.556 0-.556-.278-.926-.834-1.111.186-.093.37-.185.464-.37.092-.186.185-.464.185-.649 0-.278-.093-.463-.185-.648a.723.723 0 0 0-.37-.37c-.186-.093-.279-.186-.464-.186h-2.223zm0 0zm0 0c-.092 0-.092.093 0 0z"/><path id="u02lI" d="M83.752 37.697c.278-.278.37-.555.37-.926 0-.833-1.296-1.667-2.593-1.019-9.724 4.538-16.855 21.95-17.688 22.968-.741-1.945-2.13-5.279-2.964-7.224-1.019-2.593-2.5-8.89-6.112-7.316-1.76.741-.834 3.705-.463 4.353.185.37 6.482 16.67 6.76 17.318.278.556 1.204 2.593 4.168 1.945.556-.093 1.019-.556 1.389-1.111.278-.37.463-.834.648-1.39 5.65-14.725 10.928-22.782 16.115-27.227 0 0 .37-.278.37-.37z"/><path id="u02lJ" d="M45.411 54.367l-2.408-7.594c-.556-1.852-1.111-3.982-1.574-5.742h-.093c-.463 1.76-.926 3.89-1.482 5.742l-2.408 7.594zm-8.89 4.26l-2.686 8.706H28l10.002-30.84h7.224l10.002 30.84h-6.113l-2.778-8.706z"/><path id="u02lK" d="M90.328 56.497c-3.983-.092-7.78.741-7.78 4.168 0 2.223 1.39 3.241 3.242 3.241 2.222 0 3.89-1.481 4.352-3.056.093-.37.186-.833.186-1.204zm.74 10.836l-.37-2.5h-.093c-1.389 1.76-3.704 2.963-6.575 2.963-4.445 0-7.038-3.241-7.038-6.668 0-5.65 5-8.428 13.243-8.428v-.37c0-1.482-.556-3.89-4.538-3.89-2.223 0-4.445.649-6.02 1.667l-1.111-3.704c1.667-1.019 4.538-1.945 8.057-1.945 7.131 0 9.169 4.538 9.169 9.354v8.057c0 2.037.092 3.982.278 5.371h-5.001z"/><path id="u02lL" d="M114.314 34.919h5.65v32.507h-5.65z"/><path id="u02lM" d="M128.206 45.106l3.982 11.947a44.21 44.21 0 0 1 1.204 4.353h.093c.37-1.297.74-2.964 1.204-4.353l3.519-11.854h6.02l-5.557 15.188c-3.056 8.335-5.094 12.04-7.78 14.355-2.222 1.945-4.445 2.686-5.927 2.87l-1.296-4.722c.926-.186 2.13-.741 3.334-1.575 1.019-.648 2.315-2.037 3.056-3.519.185-.37.37-.74.37-1.019 0-.185 0-.555-.277-1.111L122 45.199h6.205z"/><path id="u02lN" d="M93.476 37.605s5.28 1.945 6.483 3.148c1.204 1.297 3.797 2.408 5.742 1.853 1.945-.556 3.89-2.964 3.52-4.538-.371-1.575 1.944-4.168 3.704-4.723 1.76-.556 10.095-3.612 11.391-8.15l-2.037-.093s.185 3.334-5.372 4.168c-5.557.833-10.835 2.778-11.391 4.075-.556 1.389.648-4.075-.37-5.835-1.02-1.76-16.856-13.058-18.893-14.262-2.038-1.204-1.204 2.315-.463 3.426.74 1.112 10.65 11.206 11.113 12.04.463.833 2.037 6.39 2.037 6.39l.093 1.575-5.186-.093z"/><path id="u02lO" d="M101.719 67.426v-22.32h5.65v22.32z"/><path id="gmzza" d="M46.1 38.574c.15-.15.2-.3.2-.5 0-.45-.7-.899-1.4-.55-5.246 2.45-9.094 11.844-9.544 12.394-.4-1.05-1.15-2.848-1.599-3.898-.55-1.4-1.35-4.797-3.298-3.948-.95.4-.45 2-.25 2.349.1.2 3.498 8.995 3.648 9.345.15.3.65 1.399 2.249 1.05.3-.05.55-.3.75-.6.15-.2.25-.45.35-.75 3.047-7.946 5.896-12.293 8.694-14.692 0 0 .2-.15.2-.2z"/><path id="gmzzb" d="M25.395 47.571l-1.3-4.098c-.3-.999-.6-2.148-.849-3.098h-.05c-.25.95-.5 2.099-.8 3.098l-1.299 4.098zm-4.798 2.299l-1.449 4.697H16l5.397-16.64h3.898l5.397 16.64h-3.298l-1.5-4.697z"/><path id="gmzzc" d="M49.66 48.758c-2.149-.05-4.198.4-4.198 2.249 0 1.2.75 1.749 1.75 1.749 1.199 0 2.098-.8 2.348-1.65.05-.2.1-.449.1-.649zm.4 5.847l-.2-1.35h-.05c-.75.95-1.999 1.6-3.548 1.6-2.399 0-3.798-1.75-3.798-3.598 0-3.049 2.698-4.548 7.146-4.548v-.2c0-.8-.3-2.098-2.449-2.098-1.199 0-2.398.35-3.248.899l-.6-1.999c.9-.55 2.45-1.05 4.348-1.05 3.848 0 4.947 2.45 4.947 5.048v4.347c0 1.1.05 2.15.15 2.899H50.06z"/><path id="gmzzd" d="M62.619 37.07h3.048v17.54h-3.048z"/><path id="gmzze" d="M70.127 42.678l2.149 6.447c.25.75.5 1.649.65 2.349h.05c.2-.7.399-1.6.649-2.35l1.899-6.396h3.248l-2.998 8.196c-1.65 4.497-2.749 6.496-4.198 7.746-1.2 1.049-2.399 1.449-3.198 1.549l-.7-2.549c.5-.1 1.15-.4 1.8-.85.549-.35 1.249-1.099 1.648-1.898.1-.2.2-.4.2-.55 0-.1 0-.3-.15-.6L66.78 42.728h3.348z"/><path id="gmzzf" d="M51.373 38.276s2.848 1.05 3.498 1.7c.65.699 2.048 1.298 3.098.999 1.05-.3 2.099-1.6 1.899-2.449-.2-.85 1.05-2.249 1.999-2.549.95-.3 5.447-1.948 6.146-4.397l-1.1-.05s.1 1.799-2.898 2.249c-2.998.45-5.846 1.499-6.146 2.198-.3.75.35-2.198-.2-3.148-.55-.95-9.095-7.046-10.194-7.695-1.1-.65-.65 1.249-.25 1.848.4.6 5.747 6.047 5.996 6.497.25.45 1.1 3.448 1.1 3.448l.05.85-2.799-.05z"/><path id="gmzzg" d="M55.816 54.655V42.612h3.048v12.043z"/><path id="p932a" d="M73.999 249H57.344c-.58 0-1.914-.565-.338-1.415a17.94 17.94 0 0 0 5.721-3.857 17.919 17.919 0 0 0 3.858-5.722A17.876 17.876 0 0 0 68 231.174V162a5 5 0 0 1 5-5h216a5 5 0 0 1 5 5v82a5 5 0 0 1-5 5z"/><mask id="p932c" width="2" height="2" x="-1" y="-1"><path fill="#fff" d="M56 157h238v92H56z"/><use xlink:href="#p932a"/></mask><filter id="p932b" width="303" height="157" x="26" y="127" filterUnits="userSpaceOnUse"><feOffset dx="5" dy="5" in="SourceGraphic" result="FeOffset1046Out"/><feGaussianBlur in="FeOffset1046Out" result="FeGaussianBlur1047Out" stdDeviation="8 8"/></filter></defs><symbol id="icon-arrow" viewBox="0 0 16 16"><g><g transform="translate(-305 -4415)"><g><use fill="#fff" fill-opacity="0" stroke="#2d333b" stroke-linecap="round" stroke-linejoin="round" stroke-miterlimit="50" stroke-width="2" xlink:href="#heaza"/></g><g><use fill="#fff" fill-opacity="0" stroke="#2d333b" stroke-linecap="round" stroke-linejoin="round" stroke-miterlimit="50" stroke-width="2" xlink:href="#heazb"/></g></g></g></symbol><symbol id="icon-bird" viewBox="0 0 24 18"><g><g transform="translate(-64 -1741)"><use fill="#636b76" xlink:href="#umsma"/></g></g></symbol><symbol id="icon-call" viewBox="0 0 18 19"><g><g transform="translate(-317 -33)"><use fill="#fff" fill-opacity="0" stroke="#2d333b" stroke-linecap="round" stroke-linejoin="round" stroke-miterlimit="50" stroke-width="2" xlink:href="#71o5a"/></g></g></symbol><symbol id="icon-check" viewBox="0 0 18 18"><g><g transform="translate(-48 -1088)"><g><use fill="#fff" fill-opacity="0" stroke="#2d333b" stroke-linecap="round" stroke-linejoin="round" stroke-miterlimit="50" stroke-width="2" xlink:href="#zuxga"/></g><g><use fill="#fff" fill-opacity="0" stroke="#2d333b" stroke-linecap="round" stroke-linejoin="round" stroke-miterlimit="50" stroke-width="2" xlink:href="#zuxgb"/></g></g></g></symbol><symbol id="icon-clock" viewBox="0 0 22 22"><g><g transform="translate(-26 -1928)"><use fill="#fff" fill-opacity="0" stroke="#2d333b" stroke-linecap="round" stroke-linejoin="round" stroke-miterlimit="50" stroke-width="2" xlink:href="#k9qfa"/></g><g transform="translate(-26 -1928)"><use fill="#fff" fill-opacity="0" stroke="#2d333b" stroke-linecap="round" stroke-linejoin="round" stroke-miterlimit="50" stroke-width="2" xlink:href="#k9qfb"/></g></g></symbol><symbol id="icon-dollar" viewBox="0 0 14 24"><g><g transform="translate(-30 -2052)"><use fill="#fff" fill-opacity="0" stroke="#2d333b" stroke-linecap="round" stroke-linejoin="round" stroke-miterlimit="50" stroke-width="2" xlink:href="#uu4ja"/></g><g transform="translate(-30 -2052)"><use fill="#fff" fill-opacity="0" stroke="#2d333b" stroke-linecap="round" stroke-linejoin="round" stroke-miterlimit="50" stroke-width="2" xlink:href="#uu4jb"/></g></g></symbol><symbol id="icon-eye" viewBox="0 0 22 16"><g><g transform="translate(-115 -564)"><g><use fill="#fff" fill-opacity="0" stroke="#2d333b" stroke-linecap="round" stroke-linejoin="round" stroke-miterlimit="50" stroke-width="2" xlink:href="#fv5da"/></g><g><use fill="#fff" fill-opacity="0" stroke="#2d333b" stroke-linecap="round" stroke-linejoin="round" stroke-miterlimit="50" stroke-width="2" xlink:href="#fv5db"/></g></g></g></symbol><symbol id="icon-lock" viewBox="0 0 20 22"><g><g transform="translate(-46 -1263)"><g><use fill="#fff" fill-opacity="0" stroke="#2d333b" stroke-linecap="round" stroke-linejoin="round" stroke-miterlimit="50" stroke-width="2" xlink:href="#ixuda"/></g><g><use fill="#fff" fill-opacity="0" stroke="#2d333b" stroke-linecap="round" stroke-linejoin="round" stroke-miterlimit="50" stroke-width="2" xlink:href="#ixudb"/></g></g></g></symbol><symbol id="icon-message" viewBox="0 0 18 18"><g><g transform="translate(-569 -205)"><use fill="#fff" fill-opacity="0" stroke="#2d333b" stroke-linecap="round" stroke-linejoin="round" stroke-miterlimit="50" stroke-width="2" xlink:href="#d7rda"/></g></g></symbol><symbol id="icon-money" viewBox="0 0 26 15"><g><g transform="translate(-24 -2205)"><g><use fill="#fff" fill-opacity="0" stroke="#2d333b" stroke-miterlimit="50" stroke-width="4" clip-path="url(&quot;#vcd6c&quot;)" xlink:href="#vcd6a"/></g><g><use fill="#fff" fill-opacity="0" stroke="#2d333b" stroke-miterlimit="50" stroke-width="2" xlink:href="#vcd6d"/></g><g><use fill="#fff" fill-opacity="0" stroke="#2d333b" stroke-miterlimit="50" stroke-width="2" xlink:href="#vcd6e"/></g><g><use fill="#fff" fill-opacity="0" stroke="#2d333b" stroke-miterlimit="50" stroke-width="4" clip-path="url(&quot;#vcd6f&quot;)" xlink:href="#vcd6b"/></g></g></g></symbol><symbol id="icon-thumbs" viewBox="0 0 18 18"><g><g transform="translate(-569 -79)"><use fill="#fff" fill-opacity="0" stroke="#2d333b" stroke-linecap="round" stroke-linejoin="round" stroke-miterlimit="50" stroke-width="2" xlink:href="#egila"/></g></g></symbol><symbol id="icon-wind" viewBox="0 0 22 18"><g><g transform="translate(-44 -1441)"><use fill="#fff" fill-opacity="0" stroke="#2d333b" stroke-linecap="round" stroke-linejoin="round" stroke-miterlimit="50" stroke-width="2" xlink:href="#6olza"/></g></g></symbol><symbol id="logo-desktop--dark" viewBox="0 0 96 64">
  
  <g id="LOGO" transform="translate(-83.2 -35.733)">
    <g id="Group_2" data-name="Group 2" transform="translate(83.353 83.955)">
      <g id="Group_1" data-name="Group 1" transform="translate(0)">
        <path id="Path_1" data-name="Path 1" class="cls-1" d="M86.151,97.89v.688h0a1.8,1.8,0,0,1,1.3.459,2.229,2.229,0,0,1,.535,1.6,2.153,2.153,0,0,1-.535,1.6,1.8,1.8,0,0,1-1.3.459h0v.764a.164.164,0,0,1-.153.153h-.688v-.841h-.076a1.8,1.8,0,0,1-1.3-.459,2.229,2.229,0,0,1-.535-1.6,2.153,2.153,0,0,1,.535-1.6,1.8,1.8,0,0,1,1.3-.459h.076v-.688c0-.076,0-.076.076-.076h.688C86.075,97.813,86.151,97.89,86.151,97.89Zm-.841,1.376h0a1.014,1.014,0,0,0-.764.229,1.383,1.383,0,0,0-.306,1.07,1.586,1.586,0,0,0,.306,1.146.934.934,0,0,0,.688.229h.076Zm.764,0v2.751h.076a.934.934,0,0,0,.688-.229,1.586,1.586,0,0,0,.306-1.146,1.383,1.383,0,0,0-.306-1.07.8.8,0,0,0-.764-.306Z" transform="translate(-83.4 -97.856)"/>
        <path id="Path_2" data-name="Path 2" class="cls-1" d="M93.681,100.153v3.821c0,.076,0,.076-.076.076h-.611c-.076,0-.076,0-.076-.076v-2.6h0a3.113,3.113,0,0,1-.459.841l-.994,1.758-.076.076h-.611c-.076,0-.076,0-.076-.076v-3.745a.075.075,0,0,1,.076-.076l.688-.153c.076,0,.076,0,.076.076v2.751h0a2.736,2.736,0,0,1,.459-.841l.994-1.758.076-.076.611-.153c-.153.076-.076.076,0,.153C93.6,100.076,93.681,100.076,93.681,100.153Z" transform="translate(-85.121 -98.361)"/>
        <path id="Path_3" data-name="Path 3" class="cls-1" d="M98.363,101.8v-1.376c0-.076,0-.076.076-.076l.611-.153h.076c.076,0,.076,0,.076.076V104.1c0,.076,0,.076-.076.076H98.44v-1.681H97.064v1.681h-.688c-.076,0-.076,0-.076-.076v-3.668c0-.076,0-.076.076-.076l.611-.153h.076c.076,0,.076,0,.076.076v1.6h1.223Z" transform="translate(-86.441 -98.408)"/>
        <path id="Path_4" data-name="Path 4" class="cls-1" d="M104.233,103.745v.076a.075.075,0,0,1-.076.076l-.459.229h-.076c-.076,0-.153-.153-.306-.459a1.509,1.509,0,0,1-1.07.459,1.149,1.149,0,0,1-.841-.306,1.044,1.044,0,0,1-.306-.841,1.44,1.44,0,0,1,.153-.611,1.667,1.667,0,0,1,.306-.382l.459-.229a4.872,4.872,0,0,0,.535-.153h.611v-.229a1.1,1.1,0,0,0-.153-.535.646.646,0,0,0-.459-.153,2.642,2.642,0,0,0-.917.229h-.076a.075.075,0,0,1-.076-.076l-.153-.382v-.076c0-.076.153-.229.459-.306a3.428,3.428,0,0,1,.841-.076,1.3,1.3,0,0,1,.994.306c.229.153.306.459.306.917v1.528A2.54,2.54,0,0,0,104.233,103.745Zm-.994-.535v-.917h-.306a.459.459,0,0,0-.306.076c-.153,0-.229.076-.306.076l-.229.229a.459.459,0,0,0-.076.306,1.086,1.086,0,0,0,.153.459.584.584,0,0,0,.382.153A1.057,1.057,0,0,0,103.24,103.21Z" transform="translate(-87.573 -98.361)"/>
        <path id="Path_5" data-name="Path 5" class="cls-1" d="M108.763,101.8v-1.376c0-.076,0-.076.076-.076l.611-.153h.076c.076,0,.076,0,.076.076V104.1c0,.076,0,.076-.076.076h-.688v-1.681h-1.376v1.681h-.688c-.076,0-.076,0-.076-.076v-3.668c0-.076,0-.076.076-.076l.611-.153h.076c.076,0,.076,0,.076.076v1.6h1.223Z" transform="translate(-88.893 -98.408)"/>
        <path id="Path_6" data-name="Path 6" class="cls-1" d="M114.528,100.611l-.229.459h-.153a1.1,1.1,0,0,0-.764-.306c-.611,0-.841.459-.841,1.376s.306,1.376.841,1.376a1.1,1.1,0,0,0,.764-.306l.076-.076a.075.075,0,0,1,.076.076l.153.382v.076c0,.076-.153.229-.459.306a3.363,3.363,0,0,1-.764.153,1.206,1.206,0,0,1-1.146-.535,2.06,2.06,0,0,1-.382-1.452,2.282,2.282,0,0,1,.459-1.528,1.485,1.485,0,0,1,1.223-.611,3.364,3.364,0,0,1,.764.153.462.462,0,0,1,.382.459Z" transform="translate(-90.072 -98.361)"/>
        <path id="Path_7" data-name="Path 7" class="cls-1" d="M119.263,102.163a2.425,2.425,0,0,1-.459,1.528,1.665,1.665,0,0,1-2.446,0,2.282,2.282,0,0,1-.459-1.528,2.425,2.425,0,0,1,.459-1.528,1.665,1.665,0,0,1,2.446,0A2.282,2.282,0,0,1,119.263,102.163Zm-.841,0c0-.917-.229-1.376-.764-1.376s-.764.459-.764,1.376a2.024,2.024,0,0,0,.229,1.07.68.68,0,0,0,1.223,0C118.5,103,118.422,102.622,118.422,102.163Z" transform="translate(-91.062 -98.385)"/>
        <path id="Path_8" data-name="Path 8" class="cls-1" d="M121.682,100.3h1.834c.153,0,.229.076.382.153a.6.6,0,0,1,.306.306,1.1,1.1,0,0,1,.153.535,1.417,1.417,0,0,1-.153.535.763.763,0,0,1-.382.306.9.9,0,0,1,.688.917.969.969,0,0,1-.076.459,1.055,1.055,0,0,1-.229.306.579.579,0,0,1-.306.153.459.459,0,0,1-.306.076h-1.834c-.076,0-.076,0-.076-.076V100.3Q121.568,100.3,121.682,100.3Zm.688.611v.917h.535a.522.522,0,0,0,.535-.535c0-.306-.153-.459-.535-.459h-.535Zm0,1.529v1.07h.611c.459,0,.688-.153.688-.535a.449.449,0,0,0-.153-.382c-.153-.076-.229-.153-.382-.153Z" transform="translate(-92.412 -98.432)"/>
        <path id="Path_9" data-name="Path 9" class="cls-1" d="M129.663,102.163a2.425,2.425,0,0,1-.459,1.528,1.665,1.665,0,0,1-2.446,0,2.282,2.282,0,0,1-.459-1.528,2.425,2.425,0,0,1,.459-1.528,1.665,1.665,0,0,1,2.446,0A1.943,1.943,0,0,1,129.663,102.163Zm-.841,0c0-.917-.229-1.376-.764-1.376s-.764.459-.764,1.376a2.024,2.024,0,0,0,.229,1.07.68.68,0,0,0,1.223,0C128.746,103,128.822,102.622,128.822,102.163Z" transform="translate(-93.514 -98.385)"/>
        <path id="Path_10" data-name="Path 10" class="cls-1" d="M134.833,102.087h0v.229h-2.293c0,.764.382,1.146.994,1.146h.306c.076,0,.153-.076.229-.076s.153-.076.229-.076a.237.237,0,0,1,.153-.076h.076a.075.075,0,0,1,.076.076l.153.382v.076c0,.076-.153.229-.535.306a3.944,3.944,0,0,1-.841.153,1.339,1.339,0,0,1-1.223-.535,2.282,2.282,0,0,1-.459-1.528,2.425,2.425,0,0,1,.459-1.528,1.425,1.425,0,0,1,1.223-.535,1.375,1.375,0,0,1,1.146.535A3.432,3.432,0,0,1,134.833,102.087Zm-.841-.306c0-.688-.229-1.07-.688-1.07s-.688.382-.764,1.07Z" transform="translate(-94.787 -98.385)"/>
        <path id="Path_11" data-name="Path 11" class="cls-1" d="M139.206,101.017l-.229-.306v-.076c0-.153.153-.306.459-.382a3.251,3.251,0,0,1,.841-.153,1.3,1.3,0,0,1,.535.076c.153.076.382.153.459.382a.934.934,0,0,1,.229.688.826.826,0,0,1-.535.841c.229.076.382.153.459.382a1.8,1.8,0,0,1,.153.611.886.886,0,0,1-.306.764,1.582,1.582,0,0,1-1.146.382,2.748,2.748,0,0,1-.841-.153c-.306-.153-.382-.229-.382-.306v-.076l.153-.382a.075.075,0,0,1,.076-.076h.076a541.4,541.4,0,0,0,.153.153,541.4,541.4,0,0,0,.153.153h.459a.646.646,0,0,0,.459-.153.462.462,0,0,0,.229-.459.545.545,0,0,0-.229-.459,1.1,1.1,0,0,0-.535-.153h-.229v-.535h.306c.459,0,.688-.153.688-.535a.449.449,0,0,0-.153-.382c-.153-.076-.229-.153-.382-.153a1.233,1.233,0,0,0-.688.229l-.076.076c-.076,0-.076.076-.153,0Z" transform="translate(-96.485 -98.385)"/>
        <path id="Path_12" data-name="Path 12" class="cls-1" d="M146.31,100.376v3.133h.382c.076,0,.076,0,.076.076v1.528c0,.076,0,.076-.076.076h-.535c-.076,0-.076,0-.076-.076v-.994h-2.293v.994c0,.076,0,.076-.076.076h-.535c-.076,0-.076,0-.076-.076v-1.528c0-.076,0-.076.076-.076h.306a5.306,5.306,0,0,0,.382-.994,4.372,4.372,0,0,0,.076-1.07v-1.07c0-.076,0-.076.076-.076h2.293Zm-.764,3.133v-2.6h-.917v.382a5.779,5.779,0,0,1-.382,2.216Z" transform="translate(-97.475 -98.432)"/>
        <path id="Path_13" data-name="Path 13" class="cls-1" d="M151.963,102.163a2.425,2.425,0,0,1-.459,1.528,1.665,1.665,0,0,1-2.446,0,2.282,2.282,0,0,1-.459-1.528,2.425,2.425,0,0,1,.459-1.528,1.665,1.665,0,0,1,2.446,0A2.282,2.282,0,0,1,151.963,102.163Zm-.841,0c0-.917-.229-1.376-.764-1.376s-.764.459-.764,1.376a2.024,2.024,0,0,0,.229,1.07.68.68,0,0,0,1.223,0C151.046,103,151.122,102.622,151.122,102.163Z" transform="translate(-98.771 -98.385)"/>
        <path id="Path_14" data-name="Path 14" class="cls-1" d="M157.286,102.109a3.106,3.106,0,0,1-.382,1.6,1.114,1.114,0,0,1-.994.535,1.149,1.149,0,0,1-.841-.306v1.6c0,.076,0,.076-.076.153l-.611.153h-.076c-.076,0-.076-.076-.076-.153v-4.356a1.526,1.526,0,0,0-.153-.688A.237.237,0,0,1,154,100.5a.075.075,0,0,1,.076-.076l.535-.229h.076q.115,0,.229.459a1.651,1.651,0,0,1,1.07-.459C156.828,100.122,157.286,100.81,157.286,102.109Zm-.841,0a2.656,2.656,0,0,0-.153-.994.512.512,0,0,0-.535-.306,1.235,1.235,0,0,0-.764.306v2.216a1.451,1.451,0,0,0,.688.229c.306,0,.459-.076.535-.306C156.446,103.026,156.446,102.644,156.446,102.109Z" transform="translate(-100.044 -98.406)"/>
        <path id="Path_15" data-name="Path 15" class="cls-1" d="M162.563,102.163a2.425,2.425,0,0,1-.459,1.528,1.665,1.665,0,0,1-2.446,0,2.282,2.282,0,0,1-.459-1.528,2.425,2.425,0,0,1,.459-1.528,1.665,1.665,0,0,1,2.446,0A2.282,2.282,0,0,1,162.563,102.163Zm-.917,0c0-.917-.229-1.376-.764-1.376s-.764.459-.764,1.376a2.024,2.024,0,0,0,.229,1.07.68.68,0,0,0,1.223,0A4.063,4.063,0,0,0,161.646,102.163Z" transform="translate(-101.27 -98.385)"/>
        <path id="Path_16" data-name="Path 16" class="cls-1" d="M164.89,100.3h1.834c.153,0,.229.076.382.153a.6.6,0,0,1,.306.306,1.105,1.105,0,0,1,.153.535,1.418,1.418,0,0,1-.153.535.763.763,0,0,1-.382.306.9.9,0,0,1,.688.917.97.97,0,0,1-.076.459,1.056,1.056,0,0,1-.229.306.58.58,0,0,1-.306.153.46.46,0,0,1-.306.076h-1.834c-.076,0-.076,0-.076-.076V100.3C164.813,100.3,164.89,100.3,164.89,100.3Zm.764.611v.917h.535a.522.522,0,0,0,.535-.535c0-.306-.153-.459-.535-.459h-.535Zm0,1.529v1.07h.611c.459,0,.688-.153.688-.535a.449.449,0,0,0-.153-.382c-.153-.076-.229-.153-.382-.153Z" transform="translate(-102.604 -98.432)"/>
        <path id="Path_17" data-name="Path 17" class="cls-1" d="M170.788,101.628h.611a1.877,1.877,0,0,1,1.146.382,1.149,1.149,0,0,1,.306.841,1.044,1.044,0,0,1-.306.841,1.794,1.794,0,0,1-1.223.382h-1.146c-.076,0-.076,0-.076-.076v-3.668a.075.075,0,0,1,.076-.076l.611-.153h0c.076,0,.076,0,.076.076v1.452Zm0,.688v1.146h.459a1.086,1.086,0,0,0,.459-.153.462.462,0,0,0,.229-.459c0-.153,0-.229-.076-.306s-.153-.153-.229-.153-.153-.076-.229-.076h-.611Z" transform="translate(-103.84 -98.385)"/>
        <path id="Path_18" data-name="Path 18" class="cls-1" d="M177.733,102.087h0v.229h-2.293c0,.764.382,1.146.994,1.146h.306c.076,0,.153-.076.229-.076s.153-.076.229-.076a.237.237,0,0,1,.153-.076h.076a.075.075,0,0,1,.076.076l.153.382v.076c0,.076-.153.229-.535.306a3.944,3.944,0,0,1-.841.153,1.34,1.34,0,0,1-1.223-.535,2.282,2.282,0,0,1-.459-1.528,2.425,2.425,0,0,1,.459-1.528,1.425,1.425,0,0,1,1.223-.535,1.375,1.375,0,0,1,1.146.535A3.432,3.432,0,0,1,177.733,102.087Zm-.841-.306c0-.688-.229-1.07-.688-1.07s-.688.382-.764,1.07Z" transform="translate(-104.901 -98.385)"/>
        <path id="Path_19" data-name="Path 19" class="cls-1" d="M83.873,111.1h1.834c.153,0,.229.076.382.153a.6.6,0,0,1,.306.306,1.1,1.1,0,0,1,.153.535,1.417,1.417,0,0,1-.153.535.763.763,0,0,1-.382.306.9.9,0,0,1,.688.917.969.969,0,0,1-.076.459,1.055,1.055,0,0,1-.229.306.579.579,0,0,1-.306.153.46.46,0,0,1-.306.076H83.949c-.076,0-.076,0-.076-.076V111.1C83.72,111.176,83.8,111.1,83.873,111.1Zm.688.611v.917H85.1a.522.522,0,0,0,.535-.535c0-.306-.153-.459-.535-.459h-.535Zm0,1.6v1.07h.611c.459,0,.688-.153.688-.535a.449.449,0,0,0-.153-.382c-.153-.076-.229-.153-.382-.153Z" transform="translate(-83.491 -100.978)"/>
        <path id="Path_20" data-name="Path 20" class="cls-1" d="M91.533,114.645v.076a.075.075,0,0,1-.076.076l-.459.229h-.076c-.076,0-.153-.153-.306-.459a1.509,1.509,0,0,1-1.07.459,1.149,1.149,0,0,1-.841-.306,1.044,1.044,0,0,1-.306-.841,1.44,1.44,0,0,1,.153-.611,1.667,1.667,0,0,1,.306-.382l.459-.229a4.865,4.865,0,0,0,.535-.153h.611v-.229a1.1,1.1,0,0,0-.153-.535.646.646,0,0,0-.459-.153,2.642,2.642,0,0,0-.917.229h-.076a.075.075,0,0,1-.076-.076l-.153-.382v-.076c0-.076.153-.229.459-.306a3.428,3.428,0,0,1,.841-.076,1.3,1.3,0,0,1,.994.306c.229.153.306.459.306.917v1.528C91.381,114.11,91.457,114.416,91.533,114.645Zm-.917-.611v-.917h-.306a.46.46,0,0,0-.306.076c-.153,0-.229.076-.306.076l-.229.229a.459.459,0,0,0-.076.306,1.086,1.086,0,0,0,.153.459.584.584,0,0,0,.382.153A1.034,1.034,0,0,0,90.616,114.033Z" transform="translate(-84.579 -100.931)"/>
        <path id="Path_21" data-name="Path 21" class="cls-1" d="M98.256,111.076V114.9c0,.076,0,.076-.076.076h-4.2c-.076,0-.076,0-.076-.076v-3.668a.075.075,0,0,1,.076-.076l.611-.153h.076c.076,0,.076,0,.076.076v3.286h.994v-3.133c0-.076,0-.076.076-.076l.611-.153h0c.076,0,.076,0,.076.076v3.286h.994v-3.133a.075.075,0,0,1,.076-.076L98.18,111h0a.075.075,0,0,1,.076.076Z" transform="translate(-85.875 -100.954)"/>
        <path id="Path_22" data-name="Path 22" class="cls-1" d="M104.281,111.053v3.821c0,.076,0,.076-.076.076h-.611c-.076,0-.076,0-.076-.076v-2.6h0a3.113,3.113,0,0,1-.459.841l-.994,1.758-.076.076h-.611c-.076,0-.076,0-.076-.076v-3.745a.075.075,0,0,1,.076-.076l.688-.153c.076,0,.076,0,.076.076v2.751h0a2.737,2.737,0,0,1,.459-.841l.994-1.758.076-.076.611-.153c-.153.076-.076.076,0,.153Z" transform="translate(-87.62 -100.931)"/>
        <path id="Path_23" data-name="Path 23" class="cls-1" d="M109.663,114.792v.076a.075.075,0,0,1-.076.076l-.535.153h-.076a.075.075,0,0,1-.076-.076l-.688-1.07a.7.7,0,0,1-.229-.382,1.671,1.671,0,0,1-.229.382l-.688,1.07a.075.075,0,0,1-.076.076h-.076l-.535-.153a.076.076,0,0,1,0-.153l1.223-1.681-1.07-1.528-.076-.076a.075.075,0,0,1,.076-.076l.535-.229h.076a.075.075,0,0,1,.076.076l.535.917c0,.076.076.153.153.229s.076.153.153.229a4.529,4.529,0,0,0,.306-.459l.611-.917a.075.075,0,0,1,.076-.076h.076l.535.229a.076.076,0,0,1,0,.153l-1.146,1.528Z" transform="translate(-88.799 -101.002)"/>
        <path id="Path_24" data-name="Path 24" class="cls-1" d="M116.628,111.511l-.229.459h-.153a1.1,1.1,0,0,0-.764-.306c-.611,0-.841.459-.841,1.376s.306,1.376.841,1.376a1.1,1.1,0,0,0,.764-.306l.076-.076a.075.075,0,0,1,.076.076l.153.382v.076c0,.076-.153.229-.459.306a3.363,3.363,0,0,1-.764.153,1.206,1.206,0,0,1-1.146-.535,2.06,2.06,0,0,1-.382-1.452,2.282,2.282,0,0,1,.459-1.528,1.485,1.485,0,0,1,1.223-.611,3.363,3.363,0,0,1,.764.153c.229.153.382.306.382.459Z" transform="translate(-90.567 -100.931)"/>
        <path id="Path_25" data-name="Path 25" class="cls-1" d="M121.363,113.063a2.425,2.425,0,0,1-.459,1.528,1.665,1.665,0,0,1-2.446,0,2.777,2.777,0,0,1,0-3.057,1.665,1.665,0,0,1,2.446,0A2.282,2.282,0,0,1,121.363,113.063Zm-.917-.076c0-.917-.229-1.376-.764-1.376s-.764.459-.764,1.376a2.024,2.024,0,0,0,.229,1.07.68.68,0,0,0,1.223,0A3.474,3.474,0,0,0,120.446,112.987Z" transform="translate(-91.557 -100.954)"/>
        <path id="Path_26" data-name="Path 26" class="cls-1" d="M124.811,111.811v3.133c0,.076,0,.076-.076.076h-.611c-.076,0-.076,0-.076-.076v-3.133h-1.07c-.076,0-.076,0-.076-.076v-.459c0-.076,0-.076.076-.076H125.8c.076,0,.076,0,.076.076h0l-.153.459a.075.075,0,0,1-.076.076Z" transform="translate(-92.712 -101.002)"/>
        <path id="Path_27" data-name="Path 27" class="cls-1" d="M130.686,113.009a3.106,3.106,0,0,1-.382,1.6,1.114,1.114,0,0,1-.994.535,1.149,1.149,0,0,1-.841-.306v1.6c0,.076,0,.076-.076.153l-.611.153h-.076c-.076,0-.076-.076-.076-.153v-4.356a1.526,1.526,0,0,0-.153-.688.237.237,0,0,1-.076-.153.075.075,0,0,1,.076-.076l.535-.229h.076q.115,0,.229.459a1.651,1.651,0,0,1,1.07-.459C130.228,111.022,130.686,111.633,130.686,113.009Zm-.841,0a2.656,2.656,0,0,0-.153-.994.512.512,0,0,0-.535-.306,1.235,1.235,0,0,0-.764.306v2.216a1.451,1.451,0,0,0,.688.229c.306,0,.459-.076.535-.306C129.846,113.926,129.846,113.544,129.846,113.009Z" transform="translate(-93.773 -100.976)"/>
        <path id="Path_28" data-name="Path 28" class="cls-1" d="M135.763,111.306l-.917,3.286c0,.076-.076.153-.076.306a.831.831,0,0,0-.076.382c0,.076-.076.229-.076.306-.076.153-.076.229-.153.306s-.076.153-.153.306l-.229.229c-.076.076-.153.076-.306.153a.689.689,0,0,1-.382.076,2.362,2.362,0,0,1-.611-.153c-.229-.076-.382-.153-.382-.229V116.2l.229-.459a.075.075,0,0,1,.076-.076h.076a1.22,1.22,0,0,0,.611.229.584.584,0,0,0,.382-.153,1.244,1.244,0,0,0,.229-.459l.153-.382h-.306c-.076,0-.076,0-.153-.076l-1.223-3.516v-.076a.075.075,0,0,1,.076-.076l.611-.153h0c.076,0,.076,0,.076.076l.764,2.446a3.749,3.749,0,0,1,.229.994.281.281,0,0,1,.076-.229.459.459,0,0,1,.076-.306.281.281,0,0,1,.076-.229l.611-2.675a.075.075,0,0,1,.076-.076h0l.611.153c-.076.076,0,.076,0,.153Z" transform="translate(-94.952 -100.954)"/>
        <path id="Path_29" data-name="Path 29" class="cls-1" d="M140.11,111.176v3.133h.382c.076,0,.076,0,.076.076v1.528c0,.076,0,.076-.076.076h-.535c-.076,0-.076,0-.076-.076v-.994h-2.293v.994c0,.076,0,.076-.076.076h-.535c-.076,0-.076,0-.076-.076v-1.528c0-.076,0-.076.076-.076h.306a5.307,5.307,0,0,0,.382-.994,4.371,4.371,0,0,0,.076-1.07v-1.07c0-.076,0-.076.076-.076h2.293Zm-.841,3.133v-2.522h-.917v.382a5.779,5.779,0,0,1-.382,2.216h1.3Z" transform="translate(-96.013 -100.978)"/>
        <path id="Path_30" data-name="Path 30" class="cls-1" d="M144.963,112.6v-1.376c0-.076,0-.076.076-.076l.611-.153h.076c.076,0,.076,0,.076.076V114.9c0,.076,0,.076-.076.076h-.688v-1.681h-1.376v1.681h-.688c-.076,0-.076,0-.076-.076v-3.668c0-.076,0-.076.076-.076l.611-.153h.076c.076,0,.076,0,.076.076v1.6h1.223Z" transform="translate(-97.427 -100.954)"/>
        <path id="Path_31" data-name="Path 31" class="cls-1" d="M151.181,111.053v3.821c0,.076,0,.076-.076.076h-.611c-.076,0-.076,0-.076-.076v-2.6h0a3.114,3.114,0,0,1-.459.841l-.994,1.758-.076.076h-.611c-.076,0-.076,0-.076-.076v-3.745a.075.075,0,0,1,.076-.076l.688-.153c.076,0,.076,0,.076.076v2.751h0a2.737,2.737,0,0,1,.459-.841l.994-1.758.076-.076.611-.153c-.076.076-.076.076,0,.153Z" transform="translate(-98.677 -100.931)"/>
        <path id="Path_32" data-name="Path 32" class="cls-1" d="M156.575,111.082l.153.459h0c0,.076,0,.076-.076.076l-.153.076c-.153,0-.229.153-.306.382l-.076.306c0,.076-.076.153-.076.229s-.076.153-.153.229a.4.4,0,0,1-.306.153.74.74,0,0,1,.535.611l.153.535c0,.076.076.153.153.229a.281.281,0,0,0,.229.076h.153c.076,0,.076,0,.076.076v.076l-.153.459c0,.076-.076.076-.153.076a1.44,1.44,0,0,1-.611-.153.943.943,0,0,1-.382-.611l-.153-.535a.4.4,0,0,0-.153-.306c-.076-.076-.153-.076-.153-.153h-.459v1.6c0,.076,0,.076-.076.076h-.611c-.076,0-.076,0-.076-.076v-3.668c0-.076,0-.076.076-.076l.611-.153h0c.076,0,.076,0,.076.076v1.6h.459c.076,0,.076,0,.153-.076.076,0,.076-.076.153-.153a.46.46,0,0,0,.076-.306l.076-.306a2.288,2.288,0,0,1,.306-.611.868.868,0,0,1,.611-.229C156.5,111.006,156.575,111.006,156.575,111.082Z" transform="translate(-100.021 -100.96)"/>
        <path id="Path_33" data-name="Path 33" class="cls-1" d="M161.763,113.063a2.425,2.425,0,0,1-.459,1.528,1.665,1.665,0,0,1-2.446,0,2.777,2.777,0,0,1,0-3.057,1.665,1.665,0,0,1,2.446,0A2.282,2.282,0,0,1,161.763,113.063Zm-.841-.076c0-.917-.229-1.376-.764-1.376s-.764.459-.764,1.376a2.024,2.024,0,0,0,.229,1.07.68.68,0,0,0,1.223,0C160.846,113.9,160.922,113.522,160.922,112.987Z" transform="translate(-101.082 -100.954)"/>
        <path id="Path_34" data-name="Path 34" class="cls-1" d="M164.182,111.1h1.834c.153,0,.229.076.382.153a.6.6,0,0,1,.306.306,1.1,1.1,0,0,1,.153.535,1.417,1.417,0,0,1-.153.535.763.763,0,0,1-.382.306.9.9,0,0,1,.688.917.969.969,0,0,1-.076.459,1.056,1.056,0,0,1-.229.306.58.58,0,0,1-.306.153.46.46,0,0,1-.306.076h-1.834c-.076,0-.076,0-.076-.076V111.1C164.106,111.176,164.106,111.1,164.182,111.1Zm.688.611v.917h.535a.522.522,0,0,0,.535-.535c0-.306-.153-.459-.535-.459h-.535Zm0,1.6v1.07h.611c.459,0,.688-.153.688-.535a.449.449,0,0,0-.153-.382c-.153-.076-.229-.153-.382-.153Z" transform="translate(-102.431 -100.978)"/>
      </g>
    </g>
    <path id="Path_35" data-name="Path 35" class="cls-2" d="M135.756,61.846a.981.981,0,0,0,.306-.764c0-.688-1.07-1.376-2.14-.841-8.025,3.745-13.909,18.113-14.6,18.953-.611-1.6-1.758-4.356-2.446-5.961-.841-2.14-2.063-7.337-5.044-6.038-1.452.611-.688,3.057-.382,3.592.153.306,5.35,13.756,5.579,14.291a2.765,2.765,0,0,0,3.439,1.6,1.892,1.892,0,0,0,1.146-.917,3.994,3.994,0,0,0,.535-1.146c4.662-12.151,9.018-18.8,13.3-22.469,0,0,.306-.229.306-.306Z" transform="translate(-6.523 -5.354)"/>
    <path id="Path_36" data-name="Path 36" class="cls-1" d="M90.231,79.365l-2.216,7.184H83.2L91.454,61.1h5.961l8.254,25.449h-5.044l-2.293-7.184Zm7.337-3.516-1.987-6.267c-.459-1.528-.917-3.286-1.3-4.738h-.076c-.382,1.452-.764,3.21-1.223,4.738L91,75.85Z" transform="translate(0 -5.598)"/>
    <path id="Path_37" data-name="Path 37" class="cls-1" d="M147.717,88.577l-.306-2.063h-.076a6.783,6.783,0,0,1-5.426,2.446,5.507,5.507,0,0,1-5.808-5.5c0-4.662,4.127-6.955,10.929-6.955V76.2c0-1.223-.459-3.21-3.745-3.21a9.456,9.456,0,0,0-4.968,1.376L137.4,71.3a13.227,13.227,0,0,1,6.649-1.6c5.885,0,7.566,3.745,7.566,7.719v6.649a36.172,36.172,0,0,0,.229,4.433h-4.127Zm-.611-8.942c-3.286-.076-6.42.611-6.42,3.439a2.45,2.45,0,0,0,2.675,2.675,3.724,3.724,0,0,0,3.592-2.522,4.472,4.472,0,0,0,.153-.994Z" transform="translate(-12.427 -7.568)"/>
    <path id="Path_38" data-name="Path 38" class="cls-1" d="M176.4,59.4h4.662V86.225H176.4Z" transform="translate(-21.904 -5.21)"/>
    <path id="Path_39" data-name="Path 39" class="cls-1" d="M189.82,70.4l3.286,9.859a36.483,36.483,0,0,1,.994,3.592h.076c.306-1.07.611-2.446.994-3.592l2.9-9.782h4.968L198.456,83.01c-2.522,6.878-4.2,9.935-6.42,11.846a9.417,9.417,0,0,1-4.891,2.369l-1.07-3.9a8.372,8.372,0,0,0,5.273-4.2,2.268,2.268,0,0,0,.306-.841,1.884,1.884,0,0,0-.229-.917L184.7,70.476h5.12Z" transform="translate(-23.842 -7.631)"/>
    <path id="Path_40" data-name="Path 40" class="cls-1" d="M151.736,56.037s4.356,1.6,5.35,2.6a5.338,5.338,0,0,0,4.738,1.528c1.6-.459,3.21-2.446,2.9-3.745s1.6-3.439,3.057-3.9,8.33-2.981,9.4-6.725l-1.681-.076s.153,2.751-4.433,3.439-8.942,2.293-9.4,3.363c-.459,1.146.535-3.363-.306-4.815S147.456,36.93,145.775,35.937s-.994,1.911-.382,2.828,8.789,9.247,9.171,9.935,1.681,5.273,1.681,5.273l.076,1.3-4.28-.076Z" transform="translate(-14.439)"/>
    <rect id="Rectangle_1" data-name="Rectangle 1" class="cls-1" width="4.662" height="18.418" transform="translate(144.092 62.668)"/>
  </g>
</symbol><symbol id="logo-desktop" viewBox="0 0 117 77"><g><g transform="translate(-28 -13)"><g><g><g><use fill="#fff" xlink:href="#u02la"/></g><g><use fill="#fff" xlink:href="#u02lb"/></g><g><use fill="#fff" xlink:href="#u02lc"/></g><g><use fill="#fff" xlink:href="#u02ld"/></g><g><use fill="#fff" xlink:href="#u02le"/></g><g><use fill="#fff" xlink:href="#u02lf"/></g><g><use fill="#fff" xlink:href="#u02lg"/></g><g><use fill="#fff" xlink:href="#u02lh"/></g><g><use fill="#fff" xlink:href="#u02li"/></g><g><use fill="#fff" xlink:href="#u02lj"/></g><g><use fill="#fff" xlink:href="#u02lk"/></g><g><use fill="#fff" xlink:href="#u02ll"/></g><g><use fill="#fff" xlink:href="#u02lm"/></g><g><use fill="#fff" xlink:href="#u02ln"/></g><g><use fill="#fff" xlink:href="#u02lo"/></g><g><use fill="#fff" xlink:href="#u02lp"/></g><g><use fill="#fff" xlink:href="#u02lq"/></g><g><use fill="#fff" xlink:href="#u02lr"/></g><g><use fill="#fff" xlink:href="#u02ls"/></g><g><use fill="#fff" xlink:href="#u02lt"/></g><g><use fill="#fff" xlink:href="#u02lu"/></g><g><use fill="#fff" xlink:href="#u02lv"/></g><g><use fill="#fff" xlink:href="#u02lw"/></g><g><use fill="#fff" xlink:href="#u02lx"/></g><g><use fill="#fff" xlink:href="#u02ly"/></g><g><use fill="#fff" xlink:href="#u02lz"/></g><g><use fill="#fff" xlink:href="#u02lA"/></g><g><use fill="#fff" xlink:href="#u02lB"/></g><g><use fill="#fff" xlink:href="#u02lC"/></g><g><use fill="#fff" xlink:href="#u02lD"/></g><g><use fill="#fff" xlink:href="#u02lE"/></g><g><use fill="#fff" xlink:href="#u02lF"/></g><g><use fill="#fff" xlink:href="#u02lG"/></g><g><use fill="#fff" xlink:href="#u02lH"/></g></g></g><g><use fill="#fce35f" xlink:href="#u02lI"/></g><g><use fill="#fff" xlink:href="#u02lJ"/></g><g><use fill="#fff" xlink:href="#u02lK"/></g><g><use fill="#fff" xlink:href="#u02lL"/></g><g><use fill="#fff" xlink:href="#u02lM"/></g><g><use fill="#fff" xlink:href="#u02lN"/></g><g><use fill="#fff" xlink:href="#u02lO"/></g></g></g></symbol><symbol id="logo" viewBox="0 0 63 36"><g><g transform="translate(-16 -25)"><g><use fill="#fce35f" xlink:href="#gmzza"/></g><g><use fill="#636b76" xlink:href="#gmzzb"/></g><g><use fill="#636b76" xlink:href="#gmzzc"/></g><g><use fill="#636b76" xlink:href="#gmzzd"/></g><g><use fill="#636b76" xlink:href="#gmzze"/></g><g><use fill="#636b76" xlink:href="#gmzzf"/></g><g><use fill="#636b76" xlink:href="#gmzzg"/></g></g></g></symbol><symbol id="message-box" viewBox="0 0 265 124"><g><g transform="translate(-50 -146)"><g filter="url(#p932b)"><use fill="none" stroke-opacity=".16" stroke-width="0" mask="url(&quot;#p932c&quot;)" xlink:href="#p932a"/><use fill="#2d333b" fill-opacity=".16" xlink:href="#p932a"/></g><use fill="#fff" xlink:href="#p932a"/></g></g></symbol></svg>